<svg xmlns="http://www.w3.org/2000/svg" id="Layer_1" data-name="Layer 1" viewBox="0 0 200 200"><defs><style>.cls-1{fill:#2a94f4;}</style></defs><title>Interface</title><path class="cls-1" d="M100,169.77A69.77,69.77,0,1,1,169.77,100,69.85,69.85,0,0,1,100,169.77Zm0-137.54A67.77,67.77,0,1,0,167.77,100,67.84,67.84,0,0,0,100,32.23Z"/><path class="cls-1" d="M100,157.68A57.68,57.68,0,1,1,157.68,100,57.75,57.75,0,0,1,100,157.68Zm0-114.36A56.68,56.68,0,1,0,156.68,100,56.75,56.75,0,0,0,100,43.32Zm26.76,96.21h-7.25V130.6h-8.93v-7.25h8.93v-8.93h7.25v8.93h8.93v7.25h-8.93Zm-6.25-1h5.25V129.6h8.93v-5.25h-8.93v-8.93h-5.25v8.93h-8.93v5.25h8.93Zm-12.88-7.15H74.29v-.5c0-15.55,7.54-22,13.59-27.24.66-.57,1.31-1.12,1.92-1.67l.26-.23.31.17a20.15,20.15,0,0,0,19.26,0l.31-.17.26.23c.6.54,1.24,1.09,1.89,1.66a51.48,51.48,0,0,1,7.13,7l.65.81h-3.31v8.93h-8.93Zm-32.34-1h31.34v-11h8.93v-8.93h2.21a57.31,57.31,0,0,0-6.33-6.08c-.56-.48-1.12-1-1.65-1.43a21.11,21.11,0,0,1-19.59,0l-1.66,1.45C82.7,109.42,75.45,115.65,75.29,130.38Zm24.71-30a17.78,17.78,0,1,1,17.78-17.77A17.8,17.8,0,0,1,100,100.42Zm0-34.55a16.78,16.78,0,1,0,16.78,16.78A16.8,16.8,0,0,0,100,65.87Z"/></svg>