<svg xmlns="http://www.w3.org/2000/svg" xmlns:xlink="http://www.w3.org/1999/xlink" version="1.1" id="Layer_1" x="0px" y="0px" viewBox="0 0 595.3 582.4" style="enable-background:new 0 0 595.3 582.4;" xml:space="preserve">
<style type="text/css">
	.st0{opacity:0.5;fill:#CCE7F9;}
	.st1{fill:#FACBB6;}
	.st2{fill:#01384F;}
	.st3{fill:none;stroke:#535E5F;stroke-width:0.3025;stroke-linecap:round;stroke-miterlimit:10;}
	.st4{fill:none;stroke:#535E5F;stroke-width:0.3025;stroke-miterlimit:10;}
	.st5{fill:#032F3F;}
	.st6{fill:none;stroke:#1F2022;stroke-width:0.4805;stroke-linecap:round;stroke-miterlimit:10;}
	.st7{fill:#EEC0AE;}
	.st8{fill:none;stroke:#CD7A76;stroke-width:0.4775;stroke-linecap:round;stroke-miterlimit:10;}
	.st9{fill:none;}
	.st10{fill:#FABB58;}
	.st11{fill:none;stroke:#6C4A18;stroke-width:0.643;stroke-linecap:round;stroke-miterlimit:10;}
	.st12{fill:#BBBDBE;}
	.st13{fill:#E6E7E7;}
	.st14{fill:#CFD1D3;}
	.st15{fill:#FFFFFF;}
	.st16{fill:#C6E3F2;}
	.st17{fill:#CDEAFB;}
	.st18{fill:#2A94F4;}
	.st19{fill:#E8E9EB;}
	.st20{fill:#004970;}
	.st21{fill:#563B4B;}
	.st22{fill:#1F3C8F;}
	.st23{fill:#F3C600;}
	.st24{fill:#ECAB57;}
	.st25{fill:#464747;}
	.st26{fill:#221E20;}
	.st27{fill:#EEAC57;}
	.st28{fill:#2C3B8D;}
	.st29{fill:#A0D6E5;}
	.st30{fill:#F0F1F1;}
	.st31{fill:#C6E1EF;}
</style>
<path class="st0" d="M132.1,132.2c39.3-53.6,115.1-73.7,180-39.8c35.5,18.5,59.9,53,96.1,70.6c40.8,19.8,87,36.6,115.8,73.5  c30.6,39.2,37.1,94.8,18,140.5c-23.2,55.6-84.5,64.2-138.3,83.4c-220.3,78.4-437.5-7.5-297-264.8  C118.4,174.1,119.1,149.9,132.1,132.2z"/>
<g>
	<g>
		<g>
			<g>
				<g>
					<g>
						<polygon class="st1" points="195,438.7 169.9,440.2 173,470.8 197.7,468.7       "/>
						<g>
							<path class="st2" d="M175.7,439.3c0,0,3,11.3-1.7,18c-2.9,4-0.5,15.4-0.5,15.4s-3.8,16.2-8.2,15.1c-0.9-0.2-2.5-48-2.5-48         L175.7,439.3z"/>
							<polygon class="st2" points="162.7,439.7 156.6,440 160.1,488.5 165.2,487.7        "/>
							<path class="st3" d="M165.2,487.7"/>
							<path class="st3" d="M162.7,439.7"/>
							<path class="st3" d="M171.9,478.2c0,0-0.2-2.2-3.6-2.4c-3.2-0.2-3.9-4.3-3.9-4.3"/>
							<path class="st3" d="M163.5,451.7"/>
							<path class="st3" d="M173.6,439.4"/>
							<g>
								<path class="st4" d="M172.8,470.1c0,0,4.6-3.7,6.3-1.1c2.5,4-4,2.5-5.9,2c-0.1,0-0.1,0.1-0.1,0.1c1.3,0.8,4.9,3.3,3.5,4.9          c-1.7,1.9-4-4.4-4-4.4"/>
							</g>
						</g>
					</g>
					<path class="st5" d="M274,277.6l67.7,156.8c4.8,11.1,5.4,32.1-5,35.6c-15.4,5.1-146.8,4.4-146.8,4.4l-3.1-36.8l95.4-7       c0,0-51.1-109.9-36.1-150.1L274,277.6z"/>
					<path class="st6" d="M282.2,430.6c0,0,11.5,3.7,12.3,4.7"/>
				</g>
				<g>
					<g>
						<polygon class="st1" points="153.7,456 128.6,455.7 129.4,486.4 154.3,486.1       "/>
						<g>
							<path class="st2" d="M134.4,455.2c0,0,2.2,11.5-3,17.8c-3.1,3.8-1.6,15.3-1.6,15.3s-5,15.9-9.3,14.5         c-0.9-0.3,0.9-48.1,0.9-48.1L134.4,455.2z"/>
							<polygon class="st2" points="121.4,454.6 115.3,454.5 115.4,503.1 120.5,502.7        "/>
							<path class="st3" d="M120.5,502.7"/>
							<path class="st3" d="M121.4,454.6"/>
							<path class="st3" d="M120.8,486.4"/>
							<path class="st3" d="M127.9,493.7"/>
							<path class="st3" d="M121.3,466.7"/>
							<path class="st3" d="M132.3,455.2"/>
						</g>
					</g>
					<path class="st2" d="M257.5,280.1c18.9,150.5,14.9,149.3,16,167.7c1.2,20.6-5.1,39.3-19,39.9c-20.5,0.9-73.7,2-106.3,2       l-1.2-36.3l74.6-2.1c0,0-9.6-73.4-14-91.2c-6.2-24.8,6.4-76.2,6.4-76.2L257.5,280.1z"/>
				</g>
			</g>
			<g>
				<g>
					<path class="st2" d="M241.5,117.6c-4.2,1.3-16.8,6.5-17.6,19.6c-0.7,10,32.6,12.4,32.6,12.4c2.8,5.4,9.2,2.9,10.9-2.7       c1.2-3.9,1.7-6.7,0.6-12.1C264.1,115.8,245.7,116.3,241.5,117.6z"/>
					<path class="st2" d="M231,127c5.3-8.2,15.8-11.4,24.9-8.2c0.6,0.2,1.2,0.4,1.7,0.7c18.2,8,19.5,30.6,7.6,42.8       c3.6,1.6,6.1,5.3,6.1,9.6c0,5.8-4.6,10.5-10.3,10.5c-5.7,0-10.3-4.7-10.3-10.5c0-0.7,0.1-1.4,0.2-2c-0.2,0-0.3,0.1-0.5,0.1       L231,127z"/>
					<g>
						<g>
							<g>
								<g>
									<path class="st1" d="M223.4,144.1c1.2-9.4,8.6-17,18.1-17.9c2.9-0.3,5.9,0.1,8.8,1.5c6.9,3.4,9.3,13.8,10.2,21.8l-0.6,9.9           l0.9,41c-6.1,25.5-26.2,24.6-26.3-6.7l0.3-20.5C222.6,169.8,222.1,154.7,223.4,144.1z"/>
									<path class="st7" d="M234.7,173.2c0,0,5.7,2,13.6-3.2c0,0-4.5,9.1-13.7,12.3L234.7,173.2z"/>
								</g>
							</g>
							<g>
								<path class="st1" d="M248.3,170"/>
							</g>
							<g>
								<path class="st1" d="M234.7,173.2"/>
							</g>
						</g>
						<g>
							<path class="st8" d="M261.1,147.9"/>
						</g>
						<g>
							<path class="st9" d="M228.2,156.1"/>
						</g>
						<g>
							<path class="st9" d="M242.1,155.5"/>
						</g>
						<g>
							<path class="st9" d="M234.3,150.1"/>
						</g>
						<g>
							<path class="st9" d="M235.1,141.8"/>
						</g>
						<g>
							<path class="st9" d="M247.4,145.3"/>
						</g>
						<g>
							<path class="st9" d="M242.2,148.9"/>
						</g>
					</g>
					<path class="st2" d="M259.6,125.4l0.6,18.1c-0.8,0.4-9.5,0.9-13-17c0,0-6.7,4.8-22.9,10.8c0-0.3,4.5-15,17.8-15.7       C255.4,120.9,259.6,125.4,259.6,125.4z"/>
				</g>
				<g>
					<g>
						<path class="st1" d="M417.4,143.8c6.2-8.8,6.3-8.2,6.2-8.8c-0.2-1.5-8.8,7.3-8.8,7.3s5-6.4,4.4-7.7        c-0.6-1.3-11.5,9.7-11.5,9.7s0.3-3.6-2-6c-0.6-0.6-1.7-0.5-2.2-0.1c1.8,3.9-1.3,12.8-1.3,12.8l-8.9,13.4c0.6,1,1.2,2,1.8,3        c1.5,2.5,2.9,5,4.3,7.5l10.8-15.6c0,0,13.9-13.9,14.5-15.3c0.5-1.4-5.5,3-5.5,3s4.9-5.3,5.6-7.5        C425.2,138,417.4,143.8,417.4,143.8z"/>
					</g>
					<g>
						<path class="st1" d="M77.3,219.7c0,0-8.6-5.9-9.1-10.2c-0.6,0-1.7,0.4-1.8,1.2c-0.8,3.2,1.3,6.2,1.3,6.2s-15-4-14.8-2.5        c0.1,1.5,7.7,4.4,7.7,4.4s-11.9-3.2-11.3-1.8c0.2,0.5,0,0,9.9,4.4c0,0-9.7-1-8.3,0.2c1.7,1.5,8.6,3.6,8.6,3.6        s-7.5-0.7-6.3,0.2c1.2,0.9,20.2,5.8,20.2,5.8l32.6,14.8l5.3-12.3L77.3,219.7z"/>
					</g>
					<g>
						<path class="st1" d="M402.2,151.1c0,0-22.6,38-61.4,41.5c-18.6,1.7-45.4,0.5-58.4,0l0,0l-46-3.1l0,0c-8.4-1-16.9,0.8-24.1,5.1        c-13.2,7.9-36.9,24.1-55.7,31.8c-33.8,13.8-79.8-6.1-79.8-6.1L75.2,231c27.6,16.9,46.1,24.6,79.8,20        c17.3-2.4,56.6-22.8,60-24.7l-2.8,67.7l62.9,1.7l2.4-67.1c8.1-2.4,49.2-7.1,63.2-9.8c32.2-6.1,58.3-39.7,71.2-63.6        L402.2,151.1z"/>
					</g>
				</g>
				<path class="st10" d="M260.8,191.4c0,0-3.6,8-13.5,7c-16.2-1.6-13.1-9.2-13.1-9.2s-12.2-3.5-29.3,9.1      c-18,13.3-37.8,22.4-37.8,22.4l6.9,29.3l34.6-12.2l-3.7,77.7c0,0,26.1-4.7,50.1-4.6c21.1,0.1,31.5-3.3,31.5-3.3l-5.5-78.3      l40.5-2.1l2.1-34.1C323.6,193,278.4,186,260.8,191.4z"/>
			</g>
		</g>
	</g>
	<g>
		<path class="st11" d="M233.3,140.2"/>
		<path class="st11" d="M260,143.1"/>
		<path class="st11" d="M251.9,145.4"/>
	</g>
</g>
<g>
	<g>
		<g>
			<path class="st12" d="M478.3,294.9v182.4c0,5.3-4.3,9.5-9.5,9.5H330.4c-5.3,0-9.5-4.3-9.5-9.5V294.9c0-5.3,4.3-9.5,9.5-9.5h138.4     C474.1,285.4,478.3,289.7,478.3,294.9z"/>
			<path class="st13" d="M478.3,291.8v185.9c0,5.4-4.3,9.7-9.5,9.7H330.4c-5.3,0-9.5-4.3-9.5-9.7V291.8c0-5.4,4.3-9.7,9.5-9.7h138.4     C474.1,282.1,478.3,286.5,478.3,291.8z"/>
			<path class="st12" d="M478.3,291.7v36.6H320.9v-36.6c0-5.3,4.3-9.5,9.5-9.5h138.4C474.1,282.1,478.3,286.4,478.3,291.7z"/>
			<rect x="320.9" y="328.3" class="st14" width="157.4" height="3.9"/>
			
				<ellipse transform="matrix(0.2228 -0.9749 0.9749 0.2228 -78.3308 699.5633)" class="st15" cx="399.6" cy="398.9" rx="44" ry="44"/>
			<path class="st16" d="M432.7,398.9c0,18.3-14.8,33.1-33.1,33.1c-13.2,0-24.6-7.7-29.9-18.9c-2.1-4.3-3.2-9.1-3.2-14.2     c0-18.3,14.8-33.1,33.1-33.1c14.6,0,27,9.5,31.4,22.6C432.1,391.8,432.7,395.3,432.7,398.9z"/>
			<circle class="st17" cx="399.6" cy="398.9" r="25"/>
			<rect x="418.2" y="293.3" class="st2" width="39.7" height="22.5"/>
			<polygon class="st2" points="457.9,293.3 457.9,308.4 418.2,293.3    "/>
			<path class="st18" d="M432.7,398.9c0,18.3-14.8,33.1-33.1,33.1c-13.2,0-24.6-7.7-29.9-18.9c0,0,7.6-21.4,26.6-14.2     c18.5,7,29.6-5,34.7-10.4C432.1,391.8,432.7,395.3,432.7,398.9z"/>
			<path class="st15" d="M436.3,414.9H436c-8.2,0-14.8-6.6-14.8-14.8v-2.4c0-8.2,6.6-14.8,14.8-14.8h0.3V414.9z"/>
			<path class="st13" d="M478.3,291.7v185.6c0,5.3-4.3,9.5-9.5,9.5h-14.1V282.1h14.1C474.1,282.1,478.3,286.4,478.3,291.7z"/>
			
				<rect x="383.2" y="391.1" transform="matrix(0.8381 -0.5456 0.5456 0.8381 -149.7922 278.6277)" class="st15" width="22.4" height="1"/>
			
				<rect x="391.2" y="391.1" transform="matrix(0.8381 -0.5455 0.5455 0.8381 -148.4857 282.901)" class="st15" width="22.4" height="1"/>
			
				<rect x="387.4" y="401" transform="matrix(0.8381 -0.5455 0.5455 0.8381 -154.501 282.4196)" class="st15" width="22.4" height="1"/>
			<path class="st15" d="M374.6,307.3h-42.4v-6.8c0-2.2,1.7-3.9,3.9-3.9h34.6c2.2,0,3.9,1.7,3.9,3.9V307.3z"/>
			<path class="st13" d="M374.6,307.3h-42.4v2c0,2.2,1.7,3.9,3.9,3.9h34.6c2.2,0,3.9-1.7,3.9-3.9V307.3z"/>
			<path class="st19" d="M406.7,304.9c0,5.2-4.2,9.4-9.4,9.4c-5.2,0-9.4-4.2-9.4-9.4c0-5.2,4.2-9.4,9.4-9.4     C402.5,295.5,406.7,299.7,406.7,304.9z"/>
			<path class="st14" d="M404.1,304.9c0,3.8-3,6.8-6.8,6.8c-3.8,0-6.8-3-6.8-6.8s3-6.8,6.8-6.8C401,298.1,404.1,301.2,404.1,304.9z"/>
			<circle class="st20" cx="465.8" cy="298.9" r="2.4"/>
			<circle class="st20" cx="465.8" cy="306" r="2.4"/>
			<rect x="396.8" y="296.1" class="st14" width="1" height="12"/>
			<g>
				<rect x="397" y="315.5" class="st21" width="0.7" height="2.2"/>
				<rect x="397" y="292.6" class="st21" width="0.7" height="1.7"/>
				<rect x="384.8" y="304.8" class="st21" width="2" height="0.7"/>
				<rect x="407.9" y="304.8" class="st21" width="2" height="0.7"/>
				
					<rect x="388.1" y="312.9" transform="matrix(0.7071 -0.7071 0.7071 0.7071 -107.515 366.9478)" class="st21" width="2.1" height="0.7"/>
				
					<rect x="404.6" y="296.6" transform="matrix(0.7071 -0.7071 0.7071 0.7071 -91.1929 373.7086)" class="st21" width="1.8" height="0.7"/>
				
					<rect x="388.8" y="296" transform="matrix(0.7071 -0.7071 0.7071 0.7071 -96.0052 362.0905)" class="st21" width="0.7" height="1.8"/>
				
					<rect x="405.1" y="312.2" transform="matrix(0.7071 -0.7071 0.7071 0.7071 -102.7661 378.4127)" class="st21" width="0.7" height="2.1"/>
				
					<rect x="385.6" y="309.1" transform="matrix(0.9284 -0.3716 0.3716 0.9284 -87.2968 165.8258)" class="st21" width="2" height="0.7"/>
				
					<rect x="407.1" y="300.5" transform="matrix(0.9286 -0.371 0.371 0.9286 -82.4891 172.8355)" class="st21" width="1.9" height="0.7"/>
				
					<rect x="392.6" y="293.5" transform="matrix(0.9283 -0.3719 0.3719 0.9283 -81.277 167.2577)" class="st21" width="0.7" height="1.8"/>
				
					<rect x="401.2" y="314.7" transform="matrix(0.9287 -0.3709 0.3709 0.9287 -88.4829 171.4648)" class="st21" width="0.7" height="2.2"/>
				
					<rect x="386.3" y="299.8" transform="matrix(0.3815 -0.9244 0.9244 0.3815 -38.8853 543.3625)" class="st21" width="0.7" height="1.9"/>
				
					<rect x="407.6" y="308.5" transform="matrix(0.381 -0.9246 0.9246 0.381 -33.6824 568.7515)" class="st21" width="0.7" height="2"/>
				
					<rect x="400.9" y="294.1" transform="matrix(0.3815 -0.9244 0.9244 0.3815 -23.6399 553.4364)" class="st21" width="1.8" height="0.7"/>
				
					<rect x="391.9" y="315.4" transform="matrix(0.3804 -0.9248 0.9248 0.3804 -48.5404 559.0053)" class="st21" width="2.2" height="0.7"/>
			</g>
		</g>
	</g>
	<path class="st18" d="M220.3,431.8c-0.1-4.6-1.4-9.1-2-13.7c-0.6-4.6-0.5-9.5,2-13.5c1.5-2.4,3.8-4.3,6.1-6c5.7-4.5,11.4-9,17-13.5   c1.1-0.9,2.2-1.8,3.6-2c2.3-0.5,4.6,0.9,6,2.8c1.4,1.9,1.9,4.2,2.5,6.5c3.1,11.5,7.4,22.7,12.7,33.4c-11.8,0.4-23.6,0.8-35.4,1.3   c-4.6,0.2-9.8,0.7-12.3,4.5c-0.6-1.6-0.6-3.4,0-5L220.3,431.8z"/>
	<g>
		<g>
			<path class="st22" d="M297.6,481.8c0.2,0,0.3,0.1,0.5,0.1c-0.6-4.6-1.2-9.3-1.4-14c-0.3-7.1-0.4-14.5-2.9-21.4     c-0.2,0-0.4,0.1-0.6,0.1c-1.3,0.3-2.4,0.9-3.3,1.6c-2.1-0.2-4.3,0.3-6,1.4c-1.1,0.7-1.9,1.6-2.4,2.6c-0.6,0-1.2,0.1-1.9,0.2     c-3.6,0.9-5.4,3.6-5.8,6.6C272.2,470.8,285.8,479.6,297.6,481.8z"/>
			<polygon class="st23" points="200.1,435.1 312,432.4 360.4,425.7 344,486.8 234.9,486.8    "/>
			<path class="st12" d="M258,425.7c0,0,40-13.3,66.3-5.8c26.3,7.6,28.2,17.9,28.2,17.9l-8.5,21.8l-77.1,6.8L258,425.7z"/>
			<path class="st17" d="M212.1,431.9c0,0,28.5-23.1,56.9-11.9c28.4,11.2,22.1,22.8,22.1,22.8L212.1,431.9z"/>
			<path class="st13" d="M244.8,442.8c0,0,19.6-14.7,60-7.7c40.4,7,39,16.1,19.5,16.1C304.8,451.1,228.5,455.6,244.8,442.8z"/>
			<path class="st15" d="M248.6,456.3c0,0,6.4-18.2,29.8-11.4C301.7,451.6,328,463,328,463v4.4c0,0-41.8-17.3-54.3-8.3     C261.2,468.1,249.1,463,248.6,456.3z"/>
			<path class="st18" d="M248.6,467.5c0,0,42.9-24.9,63.4-21c20.4,3.9,41.3,13.1,38.8,15.2c-2.5,2.1,9,25.7-6.7,25.1     c-15.7-0.6-92.1-4-92.1-4L248.6,467.5z"/>
			<path class="st24" d="M255,493.6l-40.8-3.3c-4.4-0.5-8.1-3.5-9.3-7.8l-4.8-56.5l35.1-0.2L255,493.6z"/>
			<path class="st10" d="M235.3,425.7l9.4,59.1c0.9,5,5.3,8.7,10.4,8.7h87.7c4.8,0,9.1-3.3,10.2-8l7.4-59.9H235.3z M261.2,479.7     c0,1.2-0.9,2.1-2.1,2.1h-0.9c-1.2,0-2.1-0.9-2.1-2.1v-39.8c0-1.2,0.9-2.1,2.1-2.1h0.9c1.2,0,2.1,0.9,2.1,2.1V479.7z M277.5,479.7     c0,1.2-0.9,2.1-2.1,2.1h-0.9c-1.2,0-2.1-0.9-2.1-2.1v-39.8c0-1.2,0.9-2.1,2.1-2.1h0.9c1.2,0,2.1,0.9,2.1,2.1V479.7z M293.7,479.7     c0,1.2-0.9,2.1-2.1,2.1h-0.9c-1.2,0-2.1-0.9-2.1-2.1v-39.8c0-1.2,0.9-2.1,2.1-2.1h0.9c1.2,0,2.1,0.9,2.1,2.1V479.7z M309.9,479.7     c0,1.2-0.9,2.1-2.1,2.1h-0.9c-1.2,0-2.1-0.9-2.1-2.1v-39.8c0-1.2,0.9-2.1,2.1-2.1h0.9c1.2,0,2.1,0.9,2.1,2.1V479.7z M326.2,479.7     c0,1.2-0.9,2.1-2.1,2.1h-0.9c-1.2,0-2.1-0.9-2.1-2.1v-39.8c0-1.2,0.9-2.1,2.1-2.1h0.9c1.2,0,2.1,0.9,2.1,2.1V479.7z M342.4,479.7     c0,1.2-0.9,2.1-2.1,2.1h-0.9c-1.2,0-2.1-0.9-2.1-2.1v-39.8c0-1.2,0.9-2.1,2.1-2.1h0.9c1.2,0,2.1,0.9,2.1,2.1V479.7z"/>
		</g>
		<path class="st15" d="M300.5,425.7c0,0-5.3,3-9.8,12.1s-4.9,17.6-4.9,17.6l21.8,0.9c0,0,4.6-28.5,16-30.5    C309.9,422.2,300.5,425.7,300.5,425.7z"/>
	</g>
</g>
<g>
	<g>
		<rect x="386.6" y="211.8" class="st10" width="11.2" height="3.1"/>
		<path class="st10" d="M429.6,238.3l-20.7-20.7c-2.2-2.2-5.2-3.5-8.4-3.6l-12.3-0.2c-1,0-2.1,0.1-3,0.4c-4.1,1.2-7.1,5-7.1,9.5    v49.7c0,4.8,3.9,8.8,8.8,8.8h38.1c4,0,7.4-2.7,8.5-6.4c0.2-0.7,0.3-1.5,0.3-2.3v-25.1C433.7,244.5,432.2,240.9,429.6,238.3z     M404.6,226.1c0-0.4,0.5-0.6,0.7-0.3l15.9,15.9c0.3,0.3,0.1,0.7-0.3,0.7H405c-0.2,0-0.4-0.2-0.4-0.4V226.1z"/>
		<rect x="384.3" y="206.3" class="st25" width="15.9" height="5.5"/>
		<rect x="384.3" y="206.3" class="st26" width="1.7" height="5.5"/>
		<rect x="387.9" y="206.3" class="st26" width="1.7" height="5.5"/>
		<rect x="391.5" y="206.3" class="st26" width="1.7" height="5.5"/>
		<rect x="395.2" y="206.3" class="st26" width="1.7" height="5.5"/>
		<rect x="398.8" y="206.3" class="st26" width="1.7" height="5.5"/>
		<path class="st15" d="M394.2,233.8L394.2,233.8c3.5,0,6.4,2.9,6.4,6.4v7.9h13.1c3.5,0,6.4,2.9,6.4,6.4v7.9c0,3.5-2.9,6.4-6.4,6.4    h-19.5c-3.5,0-6.4-2.9-6.4-6.4v-22.2C387.8,236.6,390.7,233.8,394.2,233.8z"/>
		<path class="st27" d="M433.4,275.7c-1,3.7-4.4,6.4-8.5,6.4h-38.1c-4.8,0-8.8-3.9-8.8-8.8v-49.7c0-4.5,3-8.3,7.1-9.5v50.4    c0,6.1,5,11.1,11.1,11.1H433.4z"/>
		<path class="st17" d="M414.7,257.7c0,4-3.3,7.3-7.3,7.3c-4,0-7.3-3.3-7.3-7.3c0-4,3.3-7.3,7.3-7.3    C411.4,250.4,414.7,253.6,414.7,257.7z"/>
		<path class="st17" d="M404.2,261.7c0,2.3-1.8,4.1-4.1,4.1c-2.3,0-4.1-1.8-4.1-4.1c0-2.3,1.8-4.1,4.1-4.1    C402.4,257.7,404.2,259.5,404.2,261.7z"/>
		<circle class="st17" cx="394" cy="252.7" r="3.3"/>
		<path class="st17" d="M399.7,246c0,1.4-1.2,2.6-2.6,2.6c-1.4,0-2.6-1.2-2.6-2.6c0-1.4,1.2-2.6,2.6-2.6    C398.6,243.4,399.7,244.6,399.7,246z"/>
		<path class="st17" d="M393.9,242c0,0.9-0.7,1.6-1.6,1.6c-0.9,0-1.6-0.7-1.6-1.6c0-0.9,0.7-1.6,1.6-1.6    C393.2,240.4,393.9,241.1,393.9,242z"/>
	</g>
	<g>
		<path class="st28" d="M381.4,228.6c-0.1,0-0.3,0-0.4-0.1l-11.6-3.5c-0.7-0.2-1.2-1-0.9-1.8c0.2-0.7,1-1.2,1.8-0.9l11.6,3.5    c0.7,0.2,1.2,1,0.9,1.8C382.6,228.2,382,228.6,381.4,228.6z"/>
		
			<rect x="361.5" y="225" transform="matrix(-1 6.401795e-03 -6.401795e-03 -1 732.3467 454.82)" class="st17" width="7.8" height="7.2"/>
		
			<rect x="384.7" y="211.3" transform="matrix(-1 6.401593e-03 -6.401593e-03 -1 775.9105 425.4182)" class="st29" width="5.2" height="5.3"/>
		<path class="st13" d="M351.6,256.1l0.1,21.6c0,2.5,2,4.5,4.5,4.5l19.3-0.1c2.5,0,4.5-2,4.5-4.5l-0.1-21.8c0-4.2-1.1-8.2-3.1-11.9    l-6.5-11.7l-9.4,0.1l-6.4,12.1C352.6,247.9,351.6,251.9,351.6,256.1z"/>
		<path class="st30" d="M355.9,256l0.1,21.6c0,2.5,2,4.5,4.5,4.5l15-0.1c2.5,0,4.5-2,4.5-4.5l-0.1-21.8c0-4.2-1.1-8.2-3.1-11.9    l-6.5-11.7l-5.1,0l-6.4,12.1C356.9,247.9,355.9,251.9,355.9,256z"/>
		
			<rect x="351.6" y="253.1" transform="matrix(-1 6.391323e-03 -6.391323e-03 -1 733.0921 519.6642)" class="st31" width="28.2" height="15.7"/>
		
			<rect x="356" y="253.1" transform="matrix(-1 6.393591e-03 -6.393591e-03 -1 737.595 519.6201)" class="st17" width="23.9" height="15.7"/>
		<path class="st22" d="M384.7,211.3l-11.7,0.1c-5.3,0-10.3,2.1-14.1,5.7l-3.8,3.7c-1.6,1.5-0.5,4.3,1.7,4.3l13.6-0.1    c0,0,2.6-8.5,14.4-8.3L384.7,211.3z"/>
	</g>
	<g>
		<polygon class="st18" points="418,229.8 408.8,269.7 460.3,269.7 451.7,229.8   "/>
		<rect x="418" y="220.1" class="st18" width="33.7" height="9.7"/>
		<rect x="408.8" y="269.7" class="st18" width="51.5" height="12.3"/>
		<rect x="418" y="220.1" class="st17" width="3.3" height="9.7"/>
		<rect x="408.8" y="269.7" class="st17" width="3.3" height="12.3"/>
		<polygon class="st17" points="421.3,229.8 412.1,269.7 408.8,269.7 418,229.8   "/>
		<path class="st17" d="M442.4,251.8c-0.4,0-0.8,0.1-1.1,0.2c-0.6-0.9-1.6-1.4-2.7-1.4c-1.2,0-2.3,0.7-2.8,1.6c-0.1,0-0.3,0-0.4,0    c-1.5,0-2.7,1.2-2.7,2.7c0,1.5,1.2,2.7,2.7,2.7c0.1,0,0.2,0,0.3,0c0.4,1.2,1.6,2.1,2.9,2.1c1.3,0,2.3-0.8,2.8-1.8    c0.3,0.1,0.7,0.2,1,0.2c1.7,0,3.1-1.4,3.1-3.1C445.5,253.2,444.1,251.8,442.4,251.8z"/>
		<path class="st15" d="M435.2,241.9c0,1.3-1.1,2.3-2.5,2.3c-1.4,0-2.5-1-2.5-2.3h-5.6v2.9l3.3,1.1v8.4h9.7v-8.4l3.3-1.1v-2.9H435.2    z"/>
		<path class="st17" d="M434.7,251.8c-0.4,0-0.8,0.1-1.1,0.2c-0.6-0.9-1.6-1.4-2.7-1.4c-1.2,0-2.3,0.7-2.8,1.6c-0.1,0-0.3,0-0.4,0    c-1.5,0-2.7,1.2-2.7,2.7c0,1.5,1.2,2.7,2.7,2.7c0.1,0,0.2,0,0.3,0c0.4,1.2,1.6,2.1,2.9,2.1c1.3,0,2.3-0.8,2.8-1.8    c0.3,0.1,0.7,0.2,1,0.2c1.7,0,3.1-1.4,3.1-3.1C437.8,253.2,436.4,251.8,434.7,251.8z"/>
		<polygon class="st15" points="443.9,262.7 427.1,262.7 423.9,254.5 447,254.5   "/>
		<path class="st15" d="M446.5,246.7c0,0.9-0.7,1.6-1.6,1.6c-0.9,0-1.6-0.7-1.6-1.6s0.7-1.6,1.6-1.6    C445.8,245.1,446.5,245.8,446.5,246.7z"/>
		<path class="st15" d="M429.5,238.9c0,0.6-0.5,1-1,1c-0.6,0-1-0.5-1-1c0-0.6,0.5-1,1-1C429,237.9,429.5,238.3,429.5,238.9z"/>
	</g>
	<path class="st15" d="M367.3,258.6l-0.7-2.1l-0.7,2.1c-0.3,0.8-1,1.5-1.9,1.5l-4.7,0.6l4.9,0.6c0.9,0.1,1.6,0.7,1.9,1.5l0.7,2.1   l0.7-2.1c0.3-0.8,1-1.5,1.9-1.5l4.7-0.6l-4.9-0.6C368.3,260,367.6,259.4,367.3,258.6z"/>
</g>
</svg>