<svg xmlns="http://www.w3.org/2000/svg" xmlns:xlink="http://www.w3.org/1999/xlink" version="1.1" id="Layer_1" x="0px" y="0px" viewBox="0 0 1080 1080" style="enable-background:new 0 0 1080 1080;" xml:space="preserve">
<style type="text/css">
	.st0{fill:none;stroke:#D3D3D3;stroke-miterlimit:10;stroke-dasharray:12.0407,12.0407;}
	.st1{fill:#F9F9F9;}
	.st2{fill:#1A87D8;}
	.st3{fill:#2A94F4;}
	.st4{fill:#B0E1FF;}
	.st5{fill:#CCE9FF;}
	.st6{fill:#F2F2F2;}
	.st7{fill:#F4BD98;}
	.st8{fill:#4FB2FC;}
	.st9{fill:#228DDD;}
	.st10{fill:#0A3E5B;}
	.st11{fill:#FCCFAC;}
	.st12{fill:#FCD7B9;}
	.st13{fill:#FFA42C;}
	.st14{fill:#FFBE78;}
	.st15{fill:#F28D16;}
	.st16{fill:#FFBF73;}
</style>
<g>
	<circle class="st0" cx="161.9" cy="278.5" r="134.1"/>
</g>
<g>
	<path class="st1" d="M202.3,233.8c-22.2,17.6-43.7,37.5-55.7,63.2c-12,25.7-12.9,58.2,4.3,80.7c23,30.1,72.7,38,82.5,74.6   c7,26.2-11.9,52.6-33.8,68.5c-21.9,16-48.1,26.5-66.6,46.3c-28,29.8-33,74.7-29.2,115.4c4,42.3,18.8,87.7,55.2,109.6   c45.3,27.2,103.1,7.6,151.5-13.5c64.6-28.1,128.4-58,192.3-87.8C642.8,625.4,782.7,560,922.6,494.5c15-7,30.6-14.5,40.8-27.5   c20.4-25.8,12.2-65.8-10-90.1c-22.2-24.3-54.6-36.2-86.1-45.7c-31.5-9.4-64.3-17.5-91.1-36.7c-26.8-19.1-46.4-52.6-38.3-84.5   c6.8-27,31.5-47,37.4-74.2c7.8-35.9-21.4-71.4-55.9-84S319.7,141,202.3,233.8z"/>
</g>
<g>
	<g>
		<g>
			<path class="st2" d="M819.2,910.2c-8.6-40-35-75.9-70.8-95.9c19.1,36.1,42,70.2,68.2,101.6L819.2,910.2z"/>
		</g>
		<g>
			<path class="st3" d="M828.7,925.2c-34-47.6-51.1-107.1-47.5-165.5c22.1,53.9,38.7,110,49.7,167.3L828.7,925.2z"/>
		</g>
		<g>
			<path class="st2" d="M819,926.9c-1-29.3-2.1-58.8,2.5-87.7s15.2-57.6,34.9-79.3c3,60-11.5,120.7-41.3,172.8L819,926.9z"/>
		</g>
		<g>
			<path class="st4" d="M820.4,929.5c-19.2-55.4-16-118.1,8.6-171.3c15.4,55.6,1.8,114.6-11.9,170.6L820.4,929.5z"/>
		</g>
		<g>
			<path class="st3" d="M822.9,909c5.3-48.6,37.7-93.3,82.2-113.4c-18.1,48.5-48.9,92.1-88.6,125.3L822.9,909z"/>
		</g>
	</g>
	<path class="st5" d="M868.8,900.5l-5.5,94.3c0,4.5-3.7,8.3-8.3,8.3h-65.4c-4.5,0-8.3-3.7-8.3-8.3l-1.2-21.3l-4.3-73   c0-4.5,3.7-8.3,8.3-8.3h76.4c3,0,5.6,1.6,7.1,4v0C868.4,897.4,868.8,898.9,868.8,900.5z"/>
	<g>
		<path class="st5" d="M868.8,900.5l-5.5,94.3c0,4.5-3.7,8.3-8.3,8.3h-65.4c-4.5,0-8.3-3.7-8.3-8.3l-1.2-21.3    c30.5-8.7,62-46.5,87.5-77.3C868.4,897.4,868.8,898.9,868.8,900.5z"/>
	</g>
</g>
<polygon class="st5" points="1033.3,1012 904.9,1012 904.9,206.4 1033.3,102.7 "/>
<rect x="44.5" y="987.4" class="st6" width="988.8" height="67.9"/>
<g>
	<g>
		<g>
			<path class="st7" d="M228,363.2c20.9,19.7,118.7,104.3,223.9,77.4c10.5,18.1,10.5,18.1,10.5,18.1s-139.4,44.9-257.7-77.9     C217.9,371.5,228,363.2,228,363.2z"/>
			<path class="st8" d="M258.3,374.9c0,0-24-53.5-41-52.4s-31.3,38.8-4.2,82.5C237.7,394.5,258.3,374.9,258.3,374.9z"/>
			<path class="st7" d="M462.4,458.8c3.2,0.3,20.3,0.9,20.3,0.9s33.5-4.1,31.3-16.5c-9.9,2.6-46.3-4.7-62.1-2.5     c-4.3,10.3-4.3,10.3-4.3,10.3L462.4,458.8z"/>
		</g>
		<path class="st9" d="M193.9,999.9c7.9,4.8,27.5,9,43.3,10.6c11,1.1,24.2,24.3,14.4,24.3c-9.4-0.1-71.8,0.8-89.3-2.4    c-5.5-2.5-2.5-16.9-1.3-34.5C175.9,993,193.9,999.9,193.9,999.9z"/>
		<path class="st10" d="M240.7,569.7l-35.4,433h-46.9c0,0-38.4-384.6-19.2-433C158.4,521.3,240.7,569.7,240.7,569.7z"/>
		<path class="st9" d="M288.8,346.3c0,0-36.7,106.1-48,223.4c-70.7,0-118.8,0-118.8,0s30.7-238.4,108.1-255    C256.3,334.4,288.8,346.3,288.8,346.3z"/>
		<polygon class="st11" points="300.2,296.2 276,324.4 251.7,311.3 272.7,275.5   "/>
		<path class="st10" d="M291.4,175.1c-19.6,0.9-68.7,7.6-52.7,91.6c13.8,6.3,31,22.4,31,22.4l24-106L291.4,175.1z"/>
		<path class="st12" d="M348.7,251.1c0,31.5-1.2,57-28,57c-26.8,0-69-25.5-69-57s21.7-57,48.5-57C327,194.1,348.7,219.6,348.7,251.1    z"/>
		<path class="st10" d="M351.5,212C351.5,212,351.5,212,351.5,212c-0.5,2.2-1,4.3-1.5,6.3c-0.6,2.6-2.4,4.3-5.1,5.4l-17.6,1h0    c-12.4-1.3-26.9-5.3-35.8-8.3c0,0-0.8-0.3-2.1-0.9c-1-0.5-2.4-1.1-3.9-1.9c-4.1-2.1-9.5-5.3-14.1-9.2c-0.1-0.1-0.2-0.2-0.3-0.3    c-3.5-3-6.5-6.5-8-10.2c-1.5-3.8-1.3-7.8,1.5-12c2.9-4.2,9.4-6.1,17.8-6.6c14.6-0.9,34.8,2.6,50.9,5.5L351.5,212z"/>
		<path class="st10" d="M293.7,210.1c-3,7-12.4,29.5-26.4,31.5c-1.7,6.8,2.3,34,3.2,45.1c-0.8,2.3-0.8,2.3-0.8,2.3l-29-33l21.5-62    L293.7,210.1z"/>
		
			<ellipse transform="matrix(0.9737 -0.2277 0.2277 0.9737 -49.9367 66.635)" class="st12" cx="263.8" cy="249.7" rx="8.2" ry="11.2"/>
		<polygon class="st8" points="288.8,327.3 240.7,299.9 223.8,323.3 288.8,368.8   "/>
		<path class="st13" d="M356.9,225.2l-8.6,0.5l-18.4,1h0l-94.8,5.4c0-0.4,0-0.7,0-1.1c-1.4-34.8,24-64.3,57.3-66.2    c16.7-0.9,32.2,5.2,43.9,16c6.7,6.2,12,13.8,15.7,22.5c1.4,3.3,2.5,6.7,3.3,10.2c0,0,0,0,0,0c0.1,0.3,0.1,0.6,0.2,0.9    C356.2,217.9,356.7,221.5,356.9,225.2z"/>
		<rect x="408.2" y="266.5" class="st13" width="204" height="204"/>
		<g>
			<path class="st11" d="M227.8,370.2c20.1,20.5,114.3,109.2,220.5,86.8c9.7,18.5,9.7,18.5,9.7,18.5s-141.1,39-254.2-88.7     C217.3,378,227.8,370.2,227.8,370.2z"/>
			<path class="st8" d="M257.6,383.1c0,0-21.7-54.5-38.7-54c-17,0.5-32.9,37.5-7.7,82.3C236.1,401.8,257.6,383.1,257.6,383.1z"/>
			<path class="st11" d="M458,475.5c3.2,0.5,23.9,5.6,23.9,5.6s20-15.3,18.2-27.9c-10,2.2-36,2.2-51.9,3.8     c-4.8,10.1-4.8,10.1-4.8,10.1L458,475.5z"/>
			<path class="st11" d="M449.7,456.8c2.7-2,9.5-8.6,12.6-11.5c0.5-0.5,1.3-0.1,1.2,0.6c-0.3,2.5-1,6.5-1.4,7.1     c-0.7,0.9-7,8.3-7,8.3L449.7,456.8z"/>
		</g>
		<rect x="489.8" y="266.5" class="st14" width="40.9" height="73.1"/>
		
			<rect x="343.5" y="219" transform="matrix(0.9984 -5.637650e-02 5.637650e-02 0.9984 -11.9226 21.018)" class="st13" width="46.2" height="5.6"/>
	</g>
	<g>
		<g>
			<path class="st7" d="M873.5,381.3c-18.6,21.9-106.3,116.9-213.8,102c-8.4,19.2-8.4,19.2-8.4,19.2s143.5,29,247.4-106.3     C884.5,388.4,873.5,381.3,873.5,381.3z"/>
			<path class="st8" d="M844.7,396.2c0,0,17.8-55.9,34.9-56.6s35.5,35.1,13.4,81.6C867.4,413.4,844.7,396.2,844.7,396.2z"/>
			<g>
				<path class="st7" d="M641.1,500.7c-3.5-1-19.9-3.6-19.9-3.6s-9.9-21.3-2.4-33.6c9.4,6.8,23.5,15.2,43.1,20.1      c0.9,6.2-9.2,18.6-9.2,18.6L641.1,500.7z"/>
				<path class="st7" d="M656.1,484c-2.3-4.1-7.5-16.4-9.8-21.9c-0.4-0.9-1.7-0.8-2,0.1c-1,3.5-2.4,8.9-2.1,9.9      c0.4,1.5,4.4,14.6,4.4,14.6L656.1,484z"/>
			</g>
		</g>
		<path class="st15" d="M895.4,999.9c-7.9,4.8-27.5,9-43.3,10.6c-11,1.1-24.2,24.3-14.4,24.3c9.4-0.1,71.8,0.8,89.3-2.4    c5.5-2.5,2.5-16.9,1.3-34.5C913.4,993,895.4,999.9,895.4,999.9z"/>
		<path class="st10" d="M848.5,569.7l35.4,433h46.9c0,0,38.4-384.6,19.2-433C930.8,521.3,848.5,569.7,848.5,569.7z"/>
		<path class="st13" d="M823.7,361.9c6.4,43,18.7,141.1,14.3,229.8c69.9,10.3,117.4,0,117.4,0s27.8-238.2-93.2-280.8    c-8.6,4.6-15.7,9.1-21.6,13C828.1,332.2,821.5,347,823.7,361.9z"/>
		<polygon class="st11" points="818.9,295 839.7,339.6 864.7,317 849.2,278.5   "/>
		<path class="st10" d="M852,179.1c15.9-1.5,39.1,8.4,41.7,41.5c2,26.8-11.7,52.3-34.6,66.1c-5.3,3.2-8.9,5.6-8.9,5.6L841.9,184    L852,179.1z"/>
		<path class="st12" d="M777.5,243.3c-4.6,31.1-7.1,56.6,19.4,60.5s72-15.2,76.6-46.3c4.6-31.1-13.1-59.6-39.6-63.5    C807.3,190.1,782.1,212.1,777.5,243.3z"/>
		<path class="st10" d="M837.7,218.8c-16.6,2.9-55.2,9.1-63.1-0.2c-2.4-2.8-11.7-39.8-11.7-39.8c51.9,14.8,97.7-12.2,107.8,8.5    S837.7,218.8,837.7,218.8z"/>
		<path class="st10" d="M837.9,210.8c1.9,7.4,7.9,31,21.5,35.1c0.7,6.9-7.3,33.2-9.7,44.2l0.4,2.4l12.8-10.8    c12.8-10.9,18.8-27.8,15.7-44.3l-7.1-37.7L837.9,210.8z"/>
		<ellipse transform="matrix(0.3676 -0.93 0.93 0.3676 308.4424 962.236)" class="st12" cx="861.8" cy="254.3" rx="11.2" ry="8.2"/>
		<g>
			<path class="st11" d="M874.5,388.1C856.9,410.8,773.2,509.4,665.1,499c-7.6,19.5-7.6,19.5-7.6,19.5S802.1,541.5,900.2,402     C885.8,394.8,874.5,388.1,874.5,388.1z"/>
			<path class="st16" d="M846.4,404.3c0,0,15.5-56.6,32.5-58c17-1.5,36.9,33.6,16.8,80.9C869.8,420.5,846.4,404.3,846.4,404.3z"/>
		</g>
		<g>
			<path class="st11" d="M650.6,518.5c-3.6-0.7-20.2-2-20.2-2s-11.6-20.5-5.1-33.3c9.9,6,23.7,12.8,43.7,16.1     c1.4,6.1-6.8,19.7-6.8,19.7L650.6,518.5z"/>
			<path class="st11" d="M664.1,500.7c-2.6-3.9-8.8-15.7-11.6-21c-0.5-0.9-1.8-0.7-1.9,0.3c-0.7,3.5-1.6,9.1-1.3,10.1     c0.6,1.5,5.6,14.2,5.6,14.2L664.1,500.7z"/>
		</g>
	</g>
</g>
</svg>