<svg xmlns="http://www.w3.org/2000/svg" xmlns:xlink="http://www.w3.org/1999/xlink" version="1.1" id="Payday" x="0px" y="0px" viewBox="0 0 1920 1080" style="enable-background:new 0 0 1920 1080;" xml:space="preserve">
<style type="text/css">
	.st0{opacity:0.1;fill:#2A94F4;}
	.st1{fill:#D3D3D3;}
	.st2{fill:#F7F7F7;}
	.st3{fill:#0B4870;}
	.st4{fill:#FFBE55;}
	.st5{fill:#FFC910;}
	.st6{opacity:6.000000e-02;}
	.st7{fill:#231F20;}
	.st8{opacity:0.29;}
	.st9{fill:#FFFFFF;}
	.st10{opacity:0.11;fill:#231F20;}
	.st11{opacity:5.000000e-02;}
	.st12{opacity:0.43;}
	.st13{opacity:0.26;}
	.st14{opacity:0.24;}
	.st15{fill:#FCD2B1;}
	.st16{fill:#0E538C;}
	.st17{fill:#2A94F4;}
	.st18{fill:#FFE3CA;}
	.st19{fill:#F2F2F2;}
	.st20{fill:#5146AF;}
	.st21{fill:none;stroke:#FFC996;stroke-width:0.5838;stroke-miterlimit:10;}
	.st22{fill:#EE5A28;}
	.st23{fill:#FFAB01;}
	.st24{fill:#FFCA10;}
	.st25{opacity:0.22;fill:#231F20;}
	.st26{opacity:0.4;}
</style>
<path class="st0" d="M1678,198.3c0,390.4-316.5,706.9-706.9,706.9S264.2,588.7,264.2,198.3s316.5-43.2,706.9-43.2  S1678-192,1678,198.3z"/>
<ellipse class="st0" cx="952" cy="912.2" rx="798.1" ry="157.4"/>
<g>
	<path class="st1" d="M1478.4,891.9H518.3c-23.6,0-43.8-18.1-45-40.4l-39.8-706.7c-1.3-22.3,16.9-40.4,40.5-40.4h960.1   c23.6,0,43.7,18.1,45,40.4l39.8,706.7C1520.1,873.8,1502,891.9,1478.4,891.9z"/>
	<g>
		<g>
			<g>
				<path class="st1" d="M1485.3,102.3C1485.3,102.3,1485.3,102.3,1485.3,102.3c-3.2,28.6-30.3,51.8-60.4,51.8      c-3.3,0-6.4-0.3-9.4-0.8c26.1-4.3,48.1-25.5,50.9-51H1485.3z"/>
				<path class="st2" d="M1355.1,894.6h-966c-23.7,0-41-18.2-38.5-40.7l79-711c2.5-22.5,23.8-40.7,47.5-40.7h966      c23.7,0,41,18.2,38.5,40.7l-79,711C1400.1,876.4,1378.8,894.6,1355.1,894.6z"/>
				<g>
					<path class="st3" d="M552.6,161.2c1.1-10-6.6-18.1-17.1-18.1c-10.6,0-20,8.1-21.1,18.1c-1.1,10,6.6,18.1,17.1,18.1       C542,179.3,551.5,171.2,552.6,161.2z"/>
					<path class="st3" d="M765.8,161.2c1.1-10-6.6-18.1-17.1-18.1s-20,8.1-21.1,18.1c-1.1,10,6.6,18.1,17.1,18.1       C755.2,179.3,764.7,171.2,765.8,161.2z"/>
					<path class="st3" d="M979.1,161.2c1.1-10-6.6-18.1-17.1-18.1s-20,8.1-21.1,18.1c-1.1,10,6.6,18.1,17.1,18.1       C968.5,179.3,978,171.2,979.1,161.2z"/>
					<path class="st3" d="M1192.3,161.2c1.1-10-6.6-18.1-17.1-18.1c-10.6,0-20,8.1-21.2,18.1c-1.1,10,6.6,18.1,17.1,18.1       C1181.7,179.3,1191.2,171.2,1192.3,161.2z"/>
					<path class="st3" d="M1405.5,161.2c1.1-10-6.6-18.1-17.1-18.1c-10.6,0-20,8.1-21.1,18.1c-1.1,10,6.6,18.1,17.1,18.1       C1395,179.3,1404.4,171.2,1405.5,161.2z"/>
				</g>
				<path class="st4" d="M529.6,171c-34.5-5.9-56.9-34.8-53.1-68.7c4.3-38.5,40.8-69.8,81.5-69.8c40.7,0,70.3,31.3,66,69.8H605      c3.2-28.6-18.8-51.8-49-51.8c-30.2,0-57.4,23.3-60.5,51.8c-2.8,25.2,13.8,46.6,39.5,51c0,0,1.7,3.8-0.6,10      C532.1,169.6,529.6,171,529.6,171z"/>
				<path class="st4" d="M745,171c-34.6-5.9-56.9-34.8-53.1-68.7c4.3-38.5,40.8-69.8,81.5-69.8c40.7,0,70.3,31.3,66,69.8h-18.9      c3.2-28.6-18.8-51.8-49-51.8c-30.2,0-57.4,23.3-60.5,51.8c-2.8,25.2,13.8,46.6,39.5,51c0,0,1.7,3.8-0.6,10      C747.4,169.6,745,171,745,171z"/>
				<path class="st4" d="M960.3,171c-34.5-5.9-56.9-34.8-53.1-68.7c4.3-38.5,40.8-69.8,81.5-69.8c40.7,0,70.3,31.3,66,69.8h-19      c3.2-28.6-18.8-51.8-49-51.8s-57.4,23.3-60.5,51.8c-2.8,25.2,13.8,46.6,39.5,51c0,0,1.7,3.8-0.6,10      C962.7,169.6,960.3,171,960.3,171z"/>
				<path class="st4" d="M1175.6,171c-34.5-5.9-56.9-34.8-53.1-68.7c4.3-38.5,40.8-69.8,81.5-69.8c40.7,0,70.3,31.3,66,69.8H1251      c3.2-28.6-18.8-51.8-49-51.8c-30.2,0-57.4,23.3-60.5,51.8c-2.8,25.2,13.8,46.6,39.5,51c0,0,1.7,3.8-0.6,10      C1178,169.6,1175.6,171,1175.6,171z"/>
				<path class="st4" d="M1485.3,102.3h-19c0.2-1.6,0.3-3.1,0.3-4.7c0-2.6-0.1-5-0.5-7.4c-0.2-1.3-0.4-2.6-0.7-3.8      c-0.1-0.8-0.3-1.5-0.6-2.2c-4.7-16.8-18.9-29.4-37.5-32.9c-3.2-0.6-6.6-0.9-10.1-0.9c-30.2,0-57.3,23.2-60.5,51.8      c-2.8,25.2,13.8,46.6,39.5,51c0,0,1.7,3.8-0.6,10c-2.3,6.2-4.7,7.6-4.7,7.6c-34.6-5.9-56.9-34.8-53.2-68.7      c4.3-38.5,40.8-69.7,81.5-69.7c39.7,0,68.8,29.8,66.2,66.9C1485.5,100.4,1485.4,101.3,1485.3,102.3z"/>
				<g>
					<path class="st3" d="M595.2,829.3c-1,0-1.7-0.8-1.6-1.7l67.3-605.8c0.1-0.9,1-1.7,2-1.7c1,0,1.7,0.8,1.6,1.7l-67.3,605.8       C597.1,828.5,596.2,829.3,595.2,829.3z"/>
					<path class="st3" d="M784,829.3c-1,0-1.7-0.8-1.6-1.7l67.3-605.8c0.1-0.9,1-1.7,2-1.7c1,0,1.7,0.8,1.6,1.7l-67.3,605.8       C785.8,828.5,784.9,829.3,784,829.3z"/>
					<path class="st3" d="M972.7,829.3c-1,0-1.7-0.8-1.6-1.7l67.3-605.8c0.1-0.9,1-1.7,2-1.7c1,0,1.7,0.8,1.6,1.7l-67.3,605.8       C974.5,828.5,973.7,829.3,972.7,829.3z"/>
					<path class="st3" d="M1161.4,829.3c-1,0-1.7-0.8-1.6-1.7l67.3-605.8c0.1-0.9,1-1.7,2-1.7c1,0,1.7,0.8,1.6,1.7l-67.3,605.8       C1163.3,828.5,1162.4,829.3,1161.4,829.3z"/>
				</g>
				<g>
					<path class="st3" d="M1379,345.9H485c-1,0-1.7-0.8-1.6-1.7c0.1-0.9,1-1.7,2-1.7h894c1,0,1.7,0.8,1.6,1.7       C1380.9,345.1,1380,345.9,1379,345.9z"/>
					<path class="st3" d="M1359,526.3H465c-1,0-1.7-0.8-1.6-1.7c0.1-0.9,1-1.7,2-1.7h894c1,0,1.7,0.8,1.6,1.7       C1360.8,525.6,1359.9,526.3,1359,526.3z"/>
					<path class="st3" d="M1338.9,706.8h-894c-1,0-1.7-0.8-1.6-1.7c0.1-0.9,1-1.7,2-1.7h894c1,0,1.7,0.8,1.6,1.7       C1340.8,706,1339.9,706.8,1338.9,706.8z"/>
				</g>
			</g>
			<path class="st4" d="M521.2,677.2c-37.9,0-65.5-29.2-61.5-65c4-35.8,38-65,75.9-65c37.9,0,65.5,29.2,61.5,65     C593.2,648,559.1,677.2,521.2,677.2z"/>
		</g>
	</g>
</g>
<g>
	<g>
		<path class="st5" d="M471.9,969.9c-0.4-12.1-1-28.2-1.5-40.3c0.3,8.3,1.1,30.8,1.5,39.4C471.9,969.3,471.9,969.6,471.9,969.9z"/>
	</g>
	<g>
		<path class="st4" d="M790,912.6c0.5,14.9,1.1,29.7,1.6,44.6c0.4,11.4-13.8,23.4-43.3,33.7c-63.6,22.3-174.1,28.4-246.8,13.6    c-39-7.9-59.2-20.3-59.7-33.5l-1.6-44.6c0.5,13.2,20.7,25.5,59.7,33.5c72.7,14.8,183.2,8.7,246.8-13.6    C776.2,936,790.5,924,790,912.6z"/>
	</g>
	<g class="st6">
		<path class="st7" d="M790,912.7c0.5,14.9,1.1,29.7,1.6,44.6c0.4,11.4-13.8,23.4-43.3,33.7c-63.6,22.3-174.1,28.4-246.8,13.6    c-39-7.9-59.2-20.3-59.7-33.5l-1.6-44.6c0.5,13.2,20.7,25.5,59.7,33.5c72.7,14.8,183.2,8.7,246.8-13.6    C776.2,936,790.5,924,790,912.7z"/>
	</g>
	<g>
		<path class="st4" d="M730.3,879.2c72.7,14.8,80,44.9,16.4,67.2c-63.6,22.3-174.1,28.4-246.8,13.6c-72.7-14.8-80-44.9-16.4-67.2    C547.2,870.5,657.7,864.4,730.3,879.2z M519.7,953c60.2,12.3,151.7,7.2,204.4-11.3c52.7-18.5,46.6-43.4-13.6-55.6    c-60.2-12.2-151.7-7.2-204.4,11.3C453.4,915.9,459.5,940.8,519.7,953L519.7,953z"/>
	</g>
	<g class="st8">
		<path class="st9" d="M730.3,879.3c72.7,14.8,80,44.9,16.4,67.2c-63.6,22.3-174.1,28.4-246.8,13.6c-72.7-14.8-80-44.9-16.4-67.2    C547.2,870.6,657.7,864.5,730.3,879.3z M519.7,953.1c60.2,12.3,151.7,7.2,204.4-11.3c52.7-18.5,46.6-43.4-13.6-55.6    c-60.2-12.2-151.7-7.2-204.4,11.3C453.4,916,459.5,940.9,519.7,953.1L519.7,953.1z"/>
	</g>
	<path class="st4" d="M710.6,886.1c60.2,12.3,66.3,37.2,13.6,55.6c-52.7,18.5-144.2,23.5-204.4,11.3c-60.2-12.3-66.3-37.2-13.6-55.6   C558.8,878.9,650.4,873.8,710.6,886.1z"/>
	<path class="st10" d="M506.1,902.9c52.7-18.5,144.2-23.5,204.4-11.3c30,6.1,46.5,15.3,49.1,25.3c3-12.1-13.7-23.7-49.1-30.9   c-60.2-12.2-151.7-7.2-204.4,11.3c-26.5,9.3-38.1,20.2-35.5,30.3C472.8,919.2,484.5,910.5,506.1,902.9z"/>
	<g class="st11">
		<path class="st7" d="M685.9,900l-16,5.6c6.4,1.8,9.4,4.1,9,6.7c-0.3,2.6-4.1,5.3-11.1,8l-16.4-3.3c3.9-1.6,5.7-3.1,5.2-4.6    c-0.5-1.5-3.2-2.7-8-3.7c-5.2-1.1-10.7-1.4-16.7-1.1c-5.9,0.4-11.2,1.3-15.8,3c-1.7,0.6-3,1.2-3.8,1.8c-0.9,0.6-1.3,1.2-1.3,1.9    c-0.1,1.3,2.9,2.9,8.9,5c3.6,1.2,6.2,2.2,7.8,2.9c5.6,2.6,8.1,5.1,7.3,7.7c-0.7,2.6-4.5,5.1-11.4,7.5c-8.7,3.1-18.7,5.1-30,6.2    c-11.2,1.1-21.5,1-30.7-0.4l-19.2,6.7l-15.3-3.1l18.4-6.5c-8.1-2.3-12-4.9-11.6-8c0.3-3.1,4.9-6.2,13.7-9.3l15.8,3.2    c-5.6,2.2-8.2,4.1-7.7,5.9c0.4,1.7,3.9,3.3,10.5,4.6c6,1.2,12.4,1.6,19.1,1.2c6.8-0.4,12.8-1.5,18.1-3.4c1.9-0.7,3.4-1.3,4.6-2    c1.2-0.6,1.9-1.3,2.3-1.8c1.2-1.9-1.6-4-8.2-6.3c-1.1-0.4-1.9-0.7-2.4-0.9c-8.1-2.9-12.3-5.7-12.7-8.3c-0.4-2.6,3-5.2,10.3-7.7    c7.9-2.8,16.9-4.6,26.9-5.5c10-0.9,19.8-0.7,29.3,0.5l15.8-5.5L685.9,900z"/>
	</g>
	<g class="st12">
		<path class="st9" d="M685.9,893.7l-16,5.6c6.4,1.8,9.4,4.1,9,6.7c-0.3,2.6-4.1,5.3-11.1,8l-16.4-3.3c3.9-1.6,5.7-3.1,5.2-4.6    c-0.5-1.5-3.2-2.8-8-3.7c-5.2-1.1-10.7-1.4-16.7-1.1c-5.9,0.4-11.2,1.3-15.8,3c-1.7,0.6-3,1.2-3.8,1.8c-0.9,0.6-1.3,1.2-1.3,1.9    c-0.1,1.3,2.9,2.9,8.9,5c3.6,1.2,6.2,2.2,7.8,2.9c5.6,2.6,8.1,5.1,7.3,7.7c-0.7,2.6-4.5,5.1-11.4,7.5c-8.7,3.1-18.7,5.1-30,6.2    c-11.2,1.1-21.5,1-30.7-0.4l-19.2,6.7l-15.3-3.1l18.4-6.5c-8.1-2.3-12-4.9-11.6-8c0.3-3.1,4.9-6.2,13.7-9.3l15.8,3.2    c-5.6,2.2-8.2,4.1-7.7,5.9c0.4,1.7,3.9,3.3,10.5,4.6c6,1.2,12.4,1.6,19.1,1.2c6.8-0.4,12.8-1.5,18.1-3.4c1.9-0.7,3.4-1.3,4.6-2    c1.2-0.6,1.9-1.3,2.3-1.8c1.2-1.9-1.6-4-8.2-6.3c-1.1-0.4-1.9-0.7-2.4-0.9c-8.1-3-12.3-5.7-12.7-8.3c-0.4-2.6,3-5.2,10.3-7.7    c7.9-2.8,16.9-4.6,26.9-5.5c10-0.9,19.8-0.7,29.3,0.5l15.8-5.5L685.9,893.7z"/>
	</g>
</g>
<g>
	<g>
		<path class="st5" d="M541.8,918.7c-0.4-12.1-1-28.2-1.5-40.3c0.3,8.3,1.1,30.8,1.5,39.4C541.8,918,541.8,918.3,541.8,918.7z"/>
	</g>
	<g>
		<path class="st4" d="M860,861.4c0.5,14.9,1.1,29.7,1.6,44.6c0.4,11.4-13.8,23.4-43.3,33.7c-63.6,22.3-174.1,28.4-246.8,13.6    c-39-7.9-59.2-20.3-59.7-33.5l-1.6-44.6c0.5,13.2,20.7,25.5,59.7,33.5c72.7,14.8,183.2,8.7,246.8-13.6    C846.1,884.8,860.4,872.8,860,861.4z"/>
	</g>
	<g class="st6">
		<path class="st7" d="M860,861.4c0.5,14.9,1.1,29.7,1.6,44.6c0.4,11.4-13.8,23.4-43.3,33.7c-63.6,22.3-174.1,28.4-246.8,13.6    c-39-7.9-59.2-20.3-59.7-33.5l-1.6-44.6c0.5,13.2,20.7,25.5,59.7,33.5c72.7,14.8,183.2,8.7,246.8-13.6    C846.1,884.8,860.4,872.8,860,861.4z"/>
	</g>
	<g>
		<path class="st4" d="M800.3,827.9c72.7,14.8,80,44.9,16.4,67.2c-63.6,22.3-174.1,28.4-246.8,13.6c-72.7-14.8-80-44.9-16.4-67.2    C617.1,819.2,727.6,813.1,800.3,827.9z M589.7,901.8c60.2,12.3,151.7,7.2,204.4-11.3c52.7-18.5,46.6-43.4-13.6-55.6    c-60.2-12.2-151.7-7.2-204.4,11.3C523.4,864.6,529.5,889.5,589.7,901.8L589.7,901.8z"/>
	</g>
	<g class="st13">
		<path class="st9" d="M800.3,827.7c72.7,14.8,80,44.9,16.4,67.2c-63.6,22.3-174.1,28.4-246.8,13.6c-72.7-14.8-80-44.9-16.4-67.2    C617.1,819,727.6,812.9,800.3,827.7z M589.7,901.5c60.2,12.3,151.7,7.2,204.4-11.3c52.7-18.5,46.6-43.4-13.6-55.6    c-60.2-12.2-151.7-7.2-204.4,11.3C523.4,864.4,529.5,889.3,589.7,901.5L589.7,901.5z"/>
	</g>
	<path class="st4" d="M780.5,834.8c60.2,12.3,66.3,37.2,13.6,55.6C741.4,909,649.9,914,589.7,901.8c-60.2-12.3-66.3-37.2-13.6-55.6   C628.8,827.6,720.3,822.6,780.5,834.8z"/>
	<path class="st10" d="M576.1,851.7c52.7-18.5,144.2-23.5,204.4-11.3c30,6.1,46.5,15.3,49.1,25.3c3-12.1-13.7-23.7-49.1-30.9   c-60.2-12.2-151.7-7.2-204.4,11.3c-26.5,9.3-38.1,20.2-35.5,30.3C542.7,868,554.4,859.3,576.1,851.7z"/>
	<g class="st11">
		<path class="st7" d="M755.8,848.8l-16,5.6c6.4,1.8,9.4,4.1,9,6.7c-0.3,2.6-4.1,5.3-11.1,8l-16.4-3.3c3.9-1.6,5.7-3.1,5.2-4.6    c-0.5-1.5-3.2-2.7-8-3.7c-5.2-1.1-10.7-1.4-16.7-1.1c-5.9,0.4-11.2,1.3-15.8,3c-1.7,0.6-3,1.2-3.8,1.8c-0.9,0.6-1.3,1.2-1.3,1.9    c-0.1,1.3,2.9,2.9,8.9,5c3.6,1.2,6.2,2.2,7.8,2.9c5.6,2.6,8.1,5.1,7.3,7.7c-0.7,2.6-4.5,5.1-11.4,7.5c-8.7,3.1-18.7,5.1-30,6.2    c-11.2,1.1-21.5,1-30.7-0.4l-19.2,6.7l-15.3-3.1l18.4-6.5c-8.1-2.3-12-4.9-11.6-8c0.3-3.1,4.9-6.2,13.7-9.3l15.8,3.2    c-5.6,2.2-8.2,4.1-7.7,5.9c0.4,1.7,3.9,3.3,10.5,4.6c6,1.2,12.4,1.6,19.1,1.2c6.8-0.4,12.8-1.5,18.1-3.4c1.9-0.7,3.4-1.3,4.6-2    c1.2-0.6,1.9-1.3,2.3-1.8c1.2-1.9-1.6-4-8.2-6.3c-1.1-0.4-1.9-0.7-2.4-0.9c-8.1-2.9-12.3-5.7-12.7-8.3c-0.4-2.6,3-5.2,10.3-7.7    c7.9-2.8,16.9-4.6,26.9-5.5c10-0.9,19.8-0.7,29.3,0.5l15.8-5.5L755.8,848.8z"/>
	</g>
	<g class="st12">
		<path class="st9" d="M755.8,842.5l-16,5.6c6.4,1.8,9.4,4.1,9,6.7c-0.3,2.6-4.1,5.3-11.1,8l-16.4-3.3c3.9-1.6,5.7-3.1,5.2-4.6    c-0.5-1.5-3.2-2.8-8-3.7c-5.2-1.1-10.7-1.4-16.7-1.1c-5.9,0.4-11.2,1.3-15.8,3c-1.7,0.6-3,1.2-3.8,1.8c-0.9,0.6-1.3,1.2-1.3,1.9    c-0.1,1.3,2.9,2.9,8.9,5c3.6,1.2,6.2,2.2,7.8,2.9c5.6,2.6,8.1,5.1,7.3,7.7c-0.7,2.6-4.5,5.1-11.4,7.5c-8.7,3.1-18.7,5.1-30,6.2    c-11.2,1.1-21.5,1-30.7-0.4l-19.2,6.7l-15.3-3.1l18.4-6.5c-8.1-2.3-12-4.9-11.6-8c0.3-3.1,4.9-6.2,13.7-9.3l15.8,3.2    c-5.6,2.2-8.2,4.1-7.7,5.9c0.4,1.7,3.9,3.3,10.5,4.6c6,1.2,12.4,1.6,19.1,1.2c6.8-0.4,12.8-1.5,18.1-3.4c1.9-0.7,3.4-1.3,4.6-2    c1.2-0.6,1.9-1.3,2.3-1.8c1.2-1.9-1.6-4-8.2-6.3c-1.1-0.4-1.9-0.7-2.4-0.9c-8.1-3-12.3-5.7-12.7-8.3c-0.4-2.6,3-5.2,10.3-7.7    c7.9-2.8,16.9-4.6,26.9-5.5c10-0.9,19.8-0.7,29.3,0.5l15.8-5.5L755.8,842.5z"/>
	</g>
</g>
<g>
	<g>
		<path class="st5" d="M1048.4,934.4c-0.4-12.1-1-28.2-1.5-40.3c0.3,8.3,1.1,30.8,1.5,39.4C1048.3,933.8,1048.3,934.1,1048.4,934.4z    "/>
	</g>
	<g>
		<path class="st4" d="M1366.5,877.1c0.5,14.9,1.1,29.7,1.6,44.6c0.4,11.4-13.8,23.4-43.3,33.7c-63.6,22.3-174.1,28.4-246.8,13.6    c-39-7.9-59.2-20.3-59.7-33.5l-1.6-44.6c0.5,13.2,20.7,25.5,59.7,33.5c72.7,14.8,183.2,8.7,246.8-13.6    C1352.7,900.5,1366.9,888.5,1366.5,877.1z"/>
	</g>
	<g class="st6">
		<path class="st7" d="M1366.5,877.2c0.5,14.9,1.1,29.7,1.6,44.6c0.4,11.4-13.8,23.4-43.3,33.7c-63.6,22.3-174.1,28.4-246.8,13.6    c-39-7.9-59.2-20.3-59.7-33.5l-1.6-44.6c0.5,13.2,20.7,25.5,59.7,33.5c72.7,14.8,183.2,8.7,246.8-13.6    C1352.7,900.5,1366.9,888.5,1366.5,877.2z"/>
	</g>
	<g>
		<path class="st4" d="M1306.8,843.7c72.7,14.8,80,44.9,16.4,67.2c-63.6,22.3-174.1,28.4-246.8,13.6c-72.7-14.8-80-44.9-16.4-67.2    C1123.6,835,1234.1,828.9,1306.8,843.7z M1096.2,917.5c60.2,12.3,151.7,7.2,204.4-11.3c52.7-18.5,46.6-43.4-13.6-55.6    c-60.2-12.2-151.7-7.2-204.4,11.3C1029.9,880.3,1036,905.3,1096.2,917.5L1096.2,917.5z"/>
	</g>
	<g class="st14">
		<path class="st9" d="M1306.8,843.7c72.7,14.8,80,44.9,16.4,67.2c-63.6,22.3-174.1,28.4-246.8,13.6c-72.7-14.8-80-44.9-16.4-67.2    C1123.6,835,1234.1,828.9,1306.8,843.7z M1096.2,917.5c60.2,12.3,151.7,7.2,204.4-11.3c52.7-18.5,46.6-43.4-13.6-55.6    c-60.2-12.2-151.7-7.2-204.4,11.3C1029.9,880.3,1036,905.3,1096.2,917.5L1096.2,917.5z"/>
	</g>
	<path class="st4" d="M1287,850.6c60.2,12.3,66.3,37.2,13.6,55.6c-52.7,18.5-144.2,23.5-204.4,11.3c-60.2-12.3-66.3-37.2-13.6-55.6   C1135.3,843.4,1226.8,838.3,1287,850.6z"/>
	<path class="st10" d="M1082.6,867.4c52.7-18.5,144.2-23.5,204.4-11.3c30,6.1,46.5,15.3,49.1,25.3c3-12.1-13.7-23.7-49.1-30.9   c-60.2-12.2-151.7-7.2-204.4,11.3c-26.5,9.3-38.1,20.2-35.5,30.3C1049.2,883.7,1060.9,875,1082.6,867.4z"/>
	<g class="st11">
		<path class="st7" d="M1262.3,864.5l-16,5.6c6.4,1.8,9.4,4.1,9,6.7c-0.3,2.6-4.1,5.3-11.1,8l-16.4-3.3c3.9-1.6,5.7-3.1,5.2-4.6    c-0.5-1.5-3.2-2.7-8-3.7c-5.2-1.1-10.7-1.4-16.7-1.1c-5.9,0.4-11.2,1.3-15.8,3c-1.7,0.6-3,1.2-3.8,1.8c-0.9,0.6-1.3,1.2-1.3,1.9    c-0.1,1.3,2.9,2.9,8.9,5c3.6,1.2,6.2,2.2,7.8,2.9c5.6,2.6,8.1,5.1,7.3,7.7c-0.7,2.6-4.5,5.1-11.4,7.5c-8.7,3.1-18.7,5.1-30,6.2    c-11.2,1.1-21.5,1-30.7-0.4l-19.2,6.7l-15.3-3.1l18.4-6.5c-8.1-2.3-12-4.9-11.6-8c0.3-3.1,4.9-6.2,13.7-9.3l15.8,3.2    c-5.6,2.2-8.2,4.1-7.7,5.9c0.4,1.7,3.9,3.3,10.5,4.6c6,1.2,12.4,1.6,19.1,1.2c6.8-0.4,12.8-1.5,18.1-3.4c1.9-0.7,3.4-1.3,4.6-2    c1.2-0.6,1.9-1.3,2.3-1.8c1.2-1.9-1.6-4-8.2-6.3c-1.1-0.4-1.9-0.7-2.4-0.9c-8.1-2.9-12.3-5.7-12.7-8.3c-0.4-2.6,3-5.2,10.3-7.7    c7.9-2.8,16.9-4.6,26.9-5.5c10-0.9,19.8-0.7,29.3,0.5l15.8-5.5L1262.3,864.5z"/>
	</g>
	<g class="st12">
		<path class="st9" d="M1262.3,858.2l-16,5.6c6.4,1.8,9.4,4.1,9,6.7c-0.3,2.6-4.1,5.3-11.1,8l-16.4-3.3c3.9-1.6,5.7-3.1,5.2-4.6    c-0.5-1.5-3.2-2.8-8-3.7c-5.2-1.1-10.7-1.4-16.7-1.1c-5.9,0.4-11.2,1.3-15.8,3c-1.7,0.6-3,1.2-3.8,1.8c-0.9,0.6-1.3,1.2-1.3,1.9    c-0.1,1.3,2.9,2.9,8.9,5c3.6,1.2,6.2,2.2,7.8,2.9c5.6,2.6,8.1,5.1,7.3,7.7c-0.7,2.6-4.5,5.1-11.4,7.5c-8.7,3.1-18.7,5.1-30,6.2    c-11.2,1.1-21.5,1-30.7-0.4l-19.2,6.7l-15.3-3.1l18.4-6.5c-8.1-2.3-12-4.9-11.6-8c0.3-3.1,4.9-6.2,13.7-9.3l15.8,3.2    c-5.6,2.2-8.2,4.1-7.7,5.9c0.4,1.7,3.9,3.3,10.5,4.6c6,1.2,12.4,1.6,19.1,1.2c6.8-0.4,12.8-1.5,18.1-3.4c1.9-0.7,3.4-1.3,4.6-2    c1.2-0.6,1.9-1.3,2.3-1.8c1.2-1.9-1.6-4-8.2-6.3c-1.1-0.4-1.9-0.7-2.4-0.9c-8.1-3-12.3-5.7-12.7-8.3c-0.4-2.6,3-5.2,10.3-7.7    c7.9-2.8,16.9-4.6,26.9-5.5c10-0.9,19.8-0.7,29.3,0.5l15.8-5.5L1262.3,858.2z"/>
	</g>
</g>
<g>
	<g>
		<path class="st5" d="M815.9,982.8c-0.4-12.1-1-28.2-1.5-40.3c0.3,8.3,1.1,30.8,1.5,39.4C815.9,982.2,815.9,982.5,815.9,982.8z"/>
	</g>
	<g>
		<path class="st4" d="M1134.1,925.6c0.5,14.9,1.1,29.7,1.6,44.6c0.4,11.4-13.8,23.4-43.3,33.7c-63.6,22.3-174.1,28.4-246.8,13.6    c-39-7.9-59.2-20.3-59.7-33.5l-1.6-44.6c0.5,13.2,20.7,25.5,59.7,33.5c72.7,14.8,183.2,8.7,246.8-13.6    C1120.3,948.9,1134.5,937,1134.1,925.6z"/>
	</g>
	<g class="st6">
		<path class="st7" d="M1134.1,925.6c0.5,14.9,1.1,29.7,1.6,44.6c0.4,11.4-13.8,23.4-43.3,33.7c-63.6,22.3-174.1,28.4-246.8,13.6    c-39-7.9-59.2-20.3-59.7-33.5l-1.6-44.6c0.5,13.2,20.7,25.5,59.7,33.5c72.7,14.8,183.2,8.7,246.8-13.6    C1120.3,949,1134.5,937,1134.1,925.6z"/>
	</g>
	<g>
		<path class="st4" d="M1074.4,892.1c72.7,14.8,80,44.9,16.4,67.2c-63.6,22.3-174.1,28.4-246.8,13.6c-72.7-14.8-80-44.9-16.4-67.2    C891.2,883.4,1001.7,877.3,1074.4,892.1z M863.8,966c60.2,12.3,151.7,7.2,204.4-11.3c52.7-18.5,46.6-43.4-13.6-55.6    c-60.2-12.2-151.7-7.2-204.4,11.3C797.5,928.8,803.6,953.7,863.8,966L863.8,966z"/>
	</g>
	<g class="st8">
		<path class="st9" d="M1074.4,891.7c72.7,14.8,80,44.9,16.4,67.2c-63.6,22.3-174.1,28.4-246.8,13.6c-72.7-14.8-80-44.9-16.4-67.2    C891.2,883,1001.7,876.9,1074.4,891.7z M863.8,965.5c60.2,12.3,151.7,7.2,204.4-11.3c52.7-18.5,46.6-43.4-13.6-55.6    c-60.2-12.2-151.7-7.2-204.4,11.3C797.5,928.3,803.6,953.3,863.8,965.5L863.8,965.5z"/>
	</g>
	<path class="st4" d="M1054.6,899c60.2,12.3,66.3,37.2,13.6,55.6c-52.7,18.5-144.2,23.5-204.4,11.3c-60.2-12.3-66.3-37.2-13.6-55.6   C902.9,891.8,994.4,886.8,1054.6,899z"/>
	<path class="st10" d="M850.2,915.9c52.7-18.5,144.2-23.5,204.4-11.3c30,6.1,46.5,15.3,49.1,25.3c3-12.1-13.7-23.7-49.1-30.9   c-60.2-12.2-151.7-7.2-204.4,11.3c-26.5,9.3-38.1,20.2-35.5,30.3C816.8,932.2,828.5,923.5,850.2,915.9z"/>
	<g class="st11">
		<path class="st7" d="M1029.9,912.9l-16,5.6c6.4,1.8,9.4,4.1,9,6.7c-0.3,2.6-4.1,5.3-11.1,8l-16.4-3.3c3.9-1.6,5.7-3.1,5.2-4.6    c-0.5-1.5-3.2-2.7-8-3.7c-5.2-1.1-10.7-1.4-16.7-1.1c-5.9,0.4-11.2,1.3-15.8,3c-1.7,0.6-3,1.2-3.8,1.8c-0.9,0.6-1.3,1.2-1.3,1.9    c-0.1,1.3,2.9,2.9,8.9,5c3.6,1.2,6.2,2.2,7.8,2.9c5.6,2.6,8.1,5.1,7.3,7.7c-0.7,2.6-4.5,5.1-11.4,7.5c-8.7,3.1-18.7,5.1-30,6.2    c-11.2,1.1-21.5,1-30.7-0.4l-19.2,6.7l-15.3-3.1l18.4-6.5c-8.1-2.3-12-4.9-11.6-8c0.3-3.1,4.9-6.2,13.7-9.3l15.8,3.2    c-5.6,2.2-8.2,4.1-7.7,5.9c0.4,1.7,3.9,3.3,10.5,4.6c6,1.2,12.4,1.6,19.1,1.2c6.8-0.4,12.8-1.5,18.1-3.4c1.9-0.7,3.4-1.3,4.6-2    c1.2-0.6,1.9-1.3,2.3-1.8c1.2-1.9-1.6-4-8.2-6.3c-1.1-0.4-1.9-0.7-2.4-0.9c-8.1-2.9-12.3-5.7-12.7-8.3c-0.4-2.6,3-5.2,10.3-7.7    c7.9-2.8,16.9-4.6,26.9-5.5c10-0.9,19.8-0.7,29.3,0.5l15.8-5.5L1029.9,912.9z"/>
	</g>
	<g class="st12">
		<path class="st9" d="M1029.9,906.7l-16,5.6c6.4,1.8,9.4,4.1,9,6.7c-0.3,2.6-4.1,5.3-11.1,8l-16.4-3.3c3.9-1.6,5.7-3.1,5.2-4.6    c-0.5-1.5-3.2-2.8-8-3.7c-5.2-1.1-10.7-1.4-16.7-1.1c-5.9,0.4-11.2,1.3-15.8,3c-1.7,0.6-3,1.2-3.8,1.8c-0.9,0.6-1.3,1.2-1.3,1.9    c-0.1,1.3,2.9,2.9,8.9,5c3.6,1.2,6.2,2.2,7.8,2.9c5.6,2.6,8.1,5.1,7.3,7.7c-0.7,2.6-4.5,5.1-11.4,7.5c-8.7,3.1-18.7,5.1-30,6.2    c-11.2,1.1-21.5,1-30.7-0.4l-19.2,6.7l-15.3-3.1l18.4-6.5c-8.1-2.3-12-4.9-11.6-8c0.3-3.1,4.9-6.2,13.7-9.3l15.8,3.2    c-5.6,2.2-8.2,4.1-7.7,5.9c0.4,1.7,3.9,3.3,10.5,4.6c6,1.2,12.4,1.6,19.1,1.2c6.8-0.4,12.8-1.5,18.1-3.4c1.9-0.7,3.4-1.3,4.6-2    c1.2-0.6,1.9-1.3,2.3-1.8c1.2-1.9-1.6-4-8.2-6.3c-1.1-0.4-1.9-0.7-2.4-0.9c-8.1-3-12.3-5.7-12.7-8.3c-0.4-2.6,3-5.2,10.3-7.7    c7.9-2.8,16.9-4.6,26.9-5.5c10-0.9,19.8-0.7,29.3,0.5l15.8-5.5L1029.9,906.7z"/>
	</g>
</g>
<g>
	<g>
		<path class="st5" d="M788.2,865.1c-0.4-12.1-1-28.2-1.5-40.3c0.3,8.3,1.1,30.8,1.5,39.4C788.1,864.5,788.1,864.8,788.2,865.1z"/>
	</g>
	<g>
		<path class="st4" d="M1106.3,807.8c0.5,14.9,1.1,29.7,1.6,44.6c0.4,11.4-13.8,23.4-43.3,33.7c-63.6,22.3-174.1,28.4-246.8,13.6    c-39-7.9-59.2-20.3-59.7-33.5l-1.6-44.6c0.5,13.2,20.7,25.5,59.7,33.5c72.7,14.8,183.2,8.7,246.8-13.6    C1092.5,831.2,1106.7,819.2,1106.3,807.8z"/>
	</g>
	<g class="st6">
		<path class="st7" d="M1106.3,807.8c0.5,14.9,1.1,29.7,1.6,44.6c0.4,11.4-13.8,23.4-43.3,33.7c-63.6,22.3-174.1,28.4-246.8,13.6    c-39-7.9-59.2-20.3-59.7-33.5l-1.6-44.6c0.5,13.2,20.7,25.5,59.7,33.5c72.7,14.8,183.2,8.7,246.8-13.6    C1092.5,831.2,1106.7,819.2,1106.3,807.8z"/>
	</g>
	<g>
		<path class="st4" d="M1046.6,774.3c72.7,14.8,80,44.9,16.4,67.2c-63.6,22.3-174.1,28.4-246.8,13.6c-72.7-14.8-80-44.9-16.4-67.2    C863.4,765.6,973.9,759.5,1046.6,774.3z M836,848.2c60.2,12.3,151.7,7.2,204.4-11.3c52.7-18.5,46.6-43.4-13.6-55.6    c-60.2-12.2-151.7-7.2-204.4,11.3C769.7,811,775.8,835.9,836,848.2L836,848.2z"/>
	</g>
	<g class="st8">
		<path class="st9" d="M1046.6,774.3c72.7,14.8,80,44.9,16.4,67.2c-63.6,22.3-174.1,28.4-246.8,13.6c-72.7-14.8-80-44.9-16.4-67.2    C863.4,765.6,973.9,759.6,1046.6,774.3z M836,848.2c60.2,12.3,151.7,7.2,204.4-11.3c52.7-18.5,46.6-43.4-13.6-55.6    c-60.2-12.2-151.7-7.2-204.4,11.3C769.7,811,775.8,835.9,836,848.2L836,848.2z"/>
	</g>
	<path class="st4" d="M1026.8,781.3c60.2,12.3,66.3,37.2,13.6,55.6c-52.7,18.5-144.2,23.5-204.4,11.3   c-60.2-12.3-66.3-37.2-13.6-55.6C875.1,774.1,966.6,769,1026.8,781.3z"/>
	<path class="st10" d="M822.4,798.1c52.7-18.5,144.2-23.5,204.4-11.3c30,6.1,46.5,15.3,49.1,25.3c3-12.1-13.7-23.7-49.1-30.9   c-60.2-12.2-151.7-7.2-204.4,11.3c-26.5,9.3-38.1,20.2-35.5,30.3C789,814.4,800.7,805.7,822.4,798.1z"/>
	<g class="st11">
		<path class="st7" d="M1002.1,795.2l-16,5.6c6.4,1.8,9.4,4.1,9,6.7c-0.3,2.6-4.1,5.3-11.1,8l-16.4-3.3c3.9-1.6,5.7-3.1,5.2-4.6    c-0.5-1.5-3.2-2.7-8-3.7c-5.2-1.1-10.7-1.4-16.7-1.1c-5.9,0.4-11.2,1.3-15.8,3c-1.7,0.6-3,1.2-3.8,1.8c-0.9,0.6-1.3,1.2-1.3,1.9    c-0.1,1.3,2.9,2.9,8.9,5c3.6,1.2,6.2,2.2,7.8,2.9c5.6,2.6,8.1,5.1,7.3,7.7c-0.7,2.6-4.5,5.1-11.4,7.5c-8.7,3.1-18.7,5.1-30,6.2    c-11.2,1.1-21.5,1-30.7-0.4l-19.2,6.7l-15.3-3.1l18.4-6.5c-8.1-2.3-12-4.9-11.6-8c0.3-3.1,4.9-6.2,13.7-9.3l15.8,3.2    c-5.6,2.2-8.2,4.1-7.7,5.9c0.4,1.7,3.9,3.3,10.5,4.6c6,1.2,12.4,1.6,19.1,1.2c6.8-0.4,12.8-1.5,18.1-3.4c1.9-0.7,3.4-1.3,4.6-2    c1.2-0.6,1.9-1.3,2.3-1.8c1.2-1.9-1.6-4-8.2-6.3c-1.1-0.4-1.9-0.7-2.4-0.9c-8.1-2.9-12.3-5.7-12.7-8.3c-0.4-2.6,3-5.2,10.3-7.7    c7.9-2.8,16.9-4.6,26.9-5.5c10-0.9,19.8-0.7,29.3,0.5l15.8-5.5L1002.1,795.2z"/>
	</g>
	<g class="st12">
		<path class="st9" d="M1002.1,788.9l-16,5.6c6.4,1.8,9.4,4.1,9,6.7c-0.3,2.6-4.1,5.3-11.1,8l-16.4-3.3c3.9-1.6,5.7-3.1,5.2-4.6    c-0.5-1.5-3.2-2.8-8-3.7c-5.2-1.1-10.7-1.4-16.7-1.1c-5.9,0.4-11.2,1.3-15.8,3c-1.7,0.6-3,1.2-3.8,1.8c-0.9,0.6-1.3,1.2-1.3,1.9    c-0.1,1.3,2.9,2.9,8.9,5c3.6,1.2,6.2,2.2,7.8,2.9c5.6,2.6,8.1,5.1,7.3,7.7c-0.7,2.6-4.5,5.1-11.4,7.5c-8.7,3.1-18.7,5.1-30,6.2    c-11.2,1.1-21.5,1-30.7-0.4l-19.2,6.7l-15.3-3.1l18.4-6.5c-8.1-2.3-12-4.9-11.6-8c0.3-3.1,4.9-6.2,13.7-9.3l15.8,3.2    c-5.6,2.2-8.2,4.1-7.7,5.9c0.4,1.7,3.9,3.3,10.5,4.6c6,1.2,12.4,1.6,19.1,1.2c6.8-0.4,12.8-1.5,18.1-3.4c1.9-0.7,3.4-1.3,4.6-2    c1.2-0.6,1.9-1.3,2.3-1.8c1.2-1.9-1.6-4-8.2-6.3c-1.1-0.4-1.9-0.7-2.4-0.9c-8.1-3-12.3-5.7-12.7-8.3c-0.4-2.6,3-5.2,10.3-7.7    c7.9-2.8,16.9-4.6,26.9-5.5c10-0.9,19.8-0.7,29.3,0.5l15.8-5.5L1002.1,788.9z"/>
	</g>
</g>
<g>
	<g>
		<path class="st15" d="M337.3,829.8C337.3,829.9,337.3,829.9,337.3,829.8c-7.2,34.4-3.8,81.4-5.4,107.2c0.4,0.1,9.8,1.3,9.8,1.3    s22.4-108.8,26.4-129.6c0.3-1.5,0.5-2.8,0.5-4c1-15.7-13.2-16.5-21.1-3.5c-1.3,2.1-2.5,4.5-3.6,7c-0.4,1-0.9,2.1-1.3,3.2l0,0    c-1.3,3.4-2.5,7-3.5,10.9l-0.1,0.4c-0.3,1.1-0.6,2.2-0.9,3.3l-0.1,0.3C337.8,827.5,337.5,828.6,337.3,829.8z"/>
		<path class="st15" d="M379.6,706.8c-0.3,2.8-1.8,16.3-3.6,32.3c-1.6,13.4-3.3,28.5-4.6,40.4c-1,9-1.7,16.1-2,19.5    c-0.2,2.1-0.4,4-0.8,5.8v0.1c-3.4,15.7-14.2,16.6-20.8,12.9c-0.9-0.5-1.8-1.1-2.5-1.7c-1.5-1.4-2.5-3-2.8-4.6v0    c-0.4-3.2-0.8-7.6-1.2-12.8v-0.1c0,0,0,0,0-0.1l0-0.1c-0.8-10.2-1.5-23.3-2.1-36c-0.7-15.7-1.2-30.7-1.3-39.2c0-0.5,0-0.9-0.1-1.4    c-0.1-26.1,23.9-42.8,38.8-34.7c0.2,0.1,0.3,0.2,0.5,0.3c0.2,0.2,0.4,0.3,0.6,0.3c1.7,1.1,2.3,5,2.3,9.5    C380.1,700.3,379.8,703.8,379.6,706.8z"/>
	</g>
	<g>
		<path class="st15" d="M394.8,836.4C394.8,836.4,394.8,836.4,394.8,836.4c-0.7,36,10.4,81.9,13.3,108c0.4,0,9.1-1.2,9.1-1.2    s1.7-113.7,1.8-135.5c0-1.5-0.1-2.9-0.2-4.1c-1.8-15.8-14.6-13.1-19.6,1.7c-0.8,2.4-1.5,5.1-2.1,7.9c-0.2,1.1-0.4,2.3-0.6,3.5l0,0    c-0.6,3.7-1,7.6-1.3,11.8l0,0.4c-0.1,1.2-0.2,2.3-0.2,3.5l0,0.3C394.8,833.9,394.8,835.1,394.8,836.4z"/>
		<path class="st15" d="M402.2,821.7c-0.9-0.2-1.8-0.6-2.5-1.1c-1.6-1-2.8-2.3-3.3-3.9l0,0c-0.9-3.1-2.1-7.4-3.3-12.5c0,0,0,0,0-0.1    L393,804c-2.4-9.9-5.3-22.7-8-35.2c-3.3-15.4-6.3-30.3-7.8-38.8c-0.1-0.5-1.4-6.6-1.5-7.1c-4.6-26.2,15.8-43.3,30.7-38.3    c0.2,0.1,0.4,0.1,0.6,0.2c3,1.2,3.8,11.7,4.5,18.8c0.7,7.1,5.7,80.7,7,94c0.2,2.1,0.3,4.1,0.3,6    C418.4,820.1,408.8,823.7,402.2,821.7z"/>
	</g>
	<g>
		<path class="st15" d="M358.3,664.7c0,0-0.2-0.7-8.9,6.5c-1.5-3.3-2.4-10-7.7-15.4c-7.8-7.8-14.4-14.9-27.4-37.3    c-1.6-2.8-2.2-6.1-1.4-9.3c3.1-13.3,12-44.3,12-44.3l4.7,1.2l16.7,4.3c0,0-11.2,25.4-14.9,38.3c-0.4,1.4-0.3,2.8,0.3,4.1    C339.7,629.5,358.3,664.7,358.3,664.7z"/>
	</g>
	<path class="st16" d="M345.2,631.1c0,0-19.2,24.4-17.3,49c0.8,10.2,6.9,19.5,8,29.8c0.2,1.5,4.3,99.2,4.5,107.4c0,0,19.4,5.9,30,5   c13.1-1.1,45.2-1,48.5-1c0-2.6,0-144.1-25.6-193.1C368.4,631.7,345.2,631.1,345.2,631.1z"/>
	<path class="st17" d="M404.1,580.4c-1.2,6.9-5,14-10.3,19.9c-1,1.6-1.7,6.5-1.9,11.7l0,0.1c-0.3,6.9,0.1,14.4,1.5,16   c-7.7,6.7-35.4,12.1-48.1,3c1.3-11.3-3.7-36.2-7.1-48.8c-0.5-1.9-1-3.6-1.4-4.9c-3.2-9.6,29.2-41.8,29.2-41.8l16.6-7.5   c0,0,14.9,5.4,20.1,10.3c-3.6,6.2-6.9,11.4,0.8,30.2C404.7,572.3,404.8,576.4,404.1,580.4z"/>
	<path class="st18" d="M400.2,470.4c0,0,18.5,55-26.4,51.2c-32.9-3.9-8-31.3-7.8-33c0.1-1.8,15.9-22.5,15.9-22.5L400.2,470.4z"/>
	<path class="st18" d="M503.2,571c0.3,3.7-1.8,9.9-10.2,11c-0.4,0.2-1.3,0.6-2.4,1.3c-5.4,3.3-18.1,11.9-30.8,20   c-0.3,0.2-0.5,0.3-0.8,0.5c-0.9,0.5-1.7,1.1-2.5,1.6c-12.5,7.8-24.3,14.6-28.6,14.9c-8-2.7-24.5-28.9-33.7-61.7   c-2.2-7.8,1.1-16.1,8.4-20.1c0,0,5.4,4.1,7.7,8c6.6,11.2,21.2,48.1,22.6,51.8c6.8-3.1,26.7-15.1,46.5-23.6c4.4-1.9,6.1-3.6,7.7-6.4   c1.5-2.9,5.1-9.7,8.2-12.9c1.7-1.7,3.4-1.2,0.2,7.2c-0.8,1.5-0.8,1.5-0.8,1.5s7.3,2,8.1,5.2C503,569.8,503.2,570.4,503.2,571z"/>
	<path class="st3" d="M386.4,450.5c0.1,0.1,3.3-1.4,3.6-1.5c2.6-0.7,5.5-0.8,8,0.3c6.5,2.8,9.7,12.3,8.2,18.9   c-1.7,7.3-9.1,10.1-15.9,10.7c-3.4,0.3-6.4,2.7-7.6,5.9c-1.9,4.8,1.5,9.3,0.7,14.1c-0.6,3.4-3.3,4.8-5.1,7.4   c-1.9,2.9-1.6,6.1,0.4,9c3.7,5.3,6.6,13.2,2.1,19.2c-2.1,2.8-2.3,6.2-1.1,9.4c1.4,3.6,4.9,5.6,6.8,9c3.1,5.5,3.5,12.8,0.7,18.5   c-2.7,5.5-9.1,8.9-15.1,9.2c-4.2,0.2-9-0.6-12.9,1.1c-3.5,1.6-5.4,5.2-8.9,7c-7,3.4-17.4,1.6-21-6c-2.1-4.5-7.5-3.7-11.5-5.1   c-4.8-1.6-8.7-5.8-9.8-10.7c-0.8-3.6-0.2-7.5,1.2-11c1-2.3,2.3-4.3,3.9-6.3c1.6-2,3.7-4.1,3.5-6.9c-0.3-4.2-3.5-7.4-4.9-11.2   c-0.9-2.3-1.4-4.7-1.4-7.2c0-7.5,5.3-13,11.4-16.6c0.5-0.3,0.9-0.5,1.4-0.8c8-5,11.2-7.8,10.7-21.4c-0.6-13.6,0.7-34.5,32-38.7   C370,445.7,381.4,446.4,386.4,450.5z"/>
	<path class="st19" d="M394.2,661.2"/>
	<g>
		<path class="st3" d="M439.8,953c-7.9,1.4-16.8,0-20.2,0.6c-2.8,0.5-10.9,0.8-13.2,0.9c-2.3,0.1-2.3-11.2,0.9-12.3    c0,0,0.7,0.3,2,0.5c2,0.3,5.2,0.4,9.3-0.8c6,2.5,6.2,3.5,13,4.9c3,0.6,6.4,1.6,8.7,2.6C443.3,950.8,444.3,952.2,439.8,953z"/>
	</g>
	<g>
		<path class="st3" d="M359,953.2c-7.9-1.3-15.8-5.7-19.2-6.3c-2.8-0.5-10.6-2.9-12.7-3.6c-2.1-0.7,1.6-11.3,5-11.3    c0,0,0.6,0.5,1.8,1.2c1.7,0.9,4.8,2.2,9,2.4c4.8,4.3,4.6,5.4,10.6,9c2.6,1.6,5.5,3.7,7.3,5.4C363,952.3,363.4,954,359,953.2z"/>
	</g>
</g>
<g>
	<path class="st15" d="M1556.6,534.6c0,0-3.3,10.7,0,15c-7.9,6.2-22.1,4.3-22.1,4.3s4.3-4.4,0-19.3   C1530.2,519.7,1556.6,534.6,1556.6,534.6z"/>
	<g>
		<g>
			<path class="st3" d="M1601.3,971c7.9-0.7,15.7-4.9,19.1-5.2c2.8-0.3,10.5-2.3,12.7-2.8c2.1-0.6-1.7-13.5-5.1-13.9     c0,0-0.6,0.5-1.7,1.2c-1.7,0.9-4.7,2-9,1.8c-4.8,4.6-4.6,5.9-10.5,9.5c-2.6,1.6-5.4,3.7-7.2,5.6     C1597.3,969.4,1596.9,971.4,1601.3,971z"/>
		</g>
		<path class="st15" d="M1626.1,943.3c0,0,1.3,5.4,2.3,6.4c-6.1,6.9-11.2,3.2-11.2,3.2l0-0.9l-1.5-6.7L1626.1,943.3z"/>
	</g>
	<path class="st15" d="M1552.8,603.7c0,0-3.8,39.6-11.2,52.9c-6.2,11.2-54.2,27.8-57.4,31.3c-5.2,5.7-10.1-0.4-16.1,2.9   c-2,1.1-7,2.1-9.7,2.7c-2.8,0.6-1.3-3.6,7.2-10.4c4.9-2.7,13.5-2.5,13.8-2.8c0.3-0.3,35.1-23.2,36.6-27.8   c1.5-4.6,6.8-56.5,6.8-56.5L1552.8,603.7z"/>
	<g>
		<g>
			<path class="st3" d="M1489.5,967.8c7.7,1.8,16.4,0.3,19.8,1.1c2.8,0.6,10.7,1.2,12.9,1.3c2.2,0.1,2.6-13.3-0.4-14.8     c0,0-0.7,0.3-2,0.6c-1.9,0.3-5.1,0.4-9.1-1.1c-6,2.8-6.2,4.1-12.9,5.7c-2.9,0.7-6.3,1.8-8.6,3     C1486.2,965,1485.2,966.7,1489.5,967.8z"/>
		</g>
		<path class="st15" d="M1521.8,949.3c0,0-0.5,5.5,0.2,6.9c-7.9,4.6-11.6-0.5-11.6-0.5l0.3-0.9l0.7-6.8L1521.8,949.3z"/>
	</g>
	<g>
		<path class="st16" d="M1591.5,739.5c0,0,16.4-33.3-6.9-59.6c0,0-21.8,8.2-38.9,8.2c-13.4,0.1-20.2-1.8-20.2-1.8    s-4.6,24.7-5.4,63.7L1591.5,739.5z"/>
		<path class="st16" d="M1539.9,853.4C1539.9,853.5,1539.9,853.5,1539.9,853.4c0,33.5-11.6,76.4-15.7,100.6c-0.4,0-0.9,0-1.3-0.1    c-8.9-0.5-13.8-1.8-13.8-1.8l0.1-2.6c3-39.1,2.3-103.2,2.6-123.5c0-1.4,0.1-2.7,0.4-3.9c2.5-14.7,17.6-11.8,23.2,2.2    c0.9,2.3,1.7,4.8,2.3,7.4c0.2,1.1,0.5,2.1,0.7,3.3v0c0.6,3.5,1.1,7.1,1.3,11v0.4c0.1,1.1,0.1,2.2,0.2,3.3v0.2    C1539.9,851.1,1539.9,852.3,1539.9,853.4z"/>
		<path class="st16" d="M1563.5,753.5c-0.1,0.4-0.2,0.8-0.4,1.2c-3.6,14.2-13.5,48.1-20.4,68.5l0,0.1c0,0,0,0,0,0.1    c-1.6,4.7-3,8.7-4.2,11.6v0c-0.6,1.4-2.1,2.7-4,3.5c-0.9,0.4-1.9,0.7-3,1c-7.8,1.6-19.1-2-19.1-17.4c0-1.7,0.1-3.6,0.4-5.5    c1.8-12.4,8.9-81,9.8-87.6c1-6.6,2.8-16.2,6.3-17.2C1546.7,706.9,1569.6,728.9,1563.5,753.5z"/>
		<path class="st20" d="M1539.2,829.3l3.5-5.8c0,0,0,0,0,0.1c-0.4,1.4-3,11.5-2.9,22.6v0.4c0,1.1,0.1,2.2,0.2,3.3v0.2    c0.1,1.8,0.1,2.9,0,3.4c0,0,0,0,0,0.1c-0.7,2.9-4.6-11.5-5.5-14.9c-0.1-0.4-0.2-0.7-0.2-0.7l3.5-6.2L1539.2,829.3z"/>
		<path class="st16" d="M1563.1,754.8c-3.6,14.2-13.5,48.1-20.4,68.5c0,0,0,0,0,0.1c0,0,0,0,0,0.1c-0.4,1.4-3,11.5-2.9,22.6v0.4    c0.1,1.1,0.1,2.2,0.2,3.3v0.2c0,1.1,0,2.3,0,3.4c0,0,0,0,0,0.1c0,33.5-11.6,76.3-15.7,100.5c-0.4,0-0.9,0-1.3-0.1    c0,0,4.7-39.8,10-67.2c4.1-21.2,0.4-39.8-1.6-47.2c-0.6-2.2-1-3.4-1-3.4l5.1-11.8c5.8-15.4,8.2-52,8.2-52c-10-26.5-9.6-59-9.6-59    l9.9,2l16.5,22.6L1563.1,754.8z"/>
		<path class="st16" d="M1593.8,827.1c-11.1-11.9-27.9-7.6-21.3,10.1c7.1,19,29.3,71.9,40.8,109.4l0.8,2.4c0,0,5.6-0.6,14.7-3.8    c-5.1-24.2-7.3-65.4-19.1-94.7C1605.8,841,1599.6,833.2,1593.8,827.1z"/>
		<g>
			<g>
				<path class="st16" d="M1534,713.4c-0.6-27.6,32.6-7.2,48.4,2.9c6.7,4.3,8.7,12.1,9.2,19.3c0.5,7.3,4.7,81.9,5.6,95.5      c2.1,30.7-23.5,12.4-25.5,3.8C1566.8,813.3,1534.3,728.5,1534,713.4z"/>
			</g>
		</g>
	</g>
	<path class="st18" d="M1511.2,497.9c0,0-5.7,53.7,34.8,42.3c2.1,0.3,14.4-2.8,16.3-19.1c1.8-16.3-7.5-33.5-8.3-34.1   c-0.8-0.5-26.3-1.3-27.3-1.3C1525.6,485.8,1511.2,497.9,1511.2,497.9z"/>
	<path class="st3" d="M1545.2,511.6c0,0-6.2-2.8-4.6-11.3c1.5-8.5,0.5-9-5.7-5.4c-6.2,3.6-37.4,20.6-32-19.1   c3.6,2.1,15,1.8,17.3-3.1c2.3-4.9,28.9-18.3,39,1.3c7,0.3,15,8.3,14.2,24c-0.8,15.7-6.5,36-12.4,37.1c-5.9,1.1-9-3.6-8.8-11.1   c0.3-3.9,11.6-9,3.4-20.6C1551.9,499.5,1541.9,502.8,1545.2,511.6z"/>
	<path class="st17" d="M1512.3,614.3c0,0,10.3,8,17.8,8.6l-3.9-44.8l-4.2,11L1512.3,614.3z"/>
	<path class="st17" d="M1520.1,685c0,0,0.5,0.2,1.3,0.5c5.9,2.2,29.4,16,61.1,0c3.9-2,6-7.8,6-7.8s-5.2-11.7-6.2-45.8   c-1-34-0.1-37.8-5.8-54.7c-5-14.7-21.3-32.9-21.3-32.9s-15.2,9.5-20.7,9.5c-6.9,16.8-14.1,38.6-11.5,54.4   c1.7,10.5-0.1,41.1-1.5,60.3C1520.7,678.3,1520.1,685,1520.1,685z"/>
	<path class="st21" d="M1500.9,634.9"/>
	<path class="st18" d="M1563.1,618.2c0,0-8.8,38.8-17.9,51c-7.6,10.3-57.3,20.6-60.9,23.8c-5.9,5-10-1.7-16.4,0.8   c-2.2,0.8-1.3,1.9-4.1,2.1c-2.8,0.2-6.7-4.4,2.6-10.1c5.2-2.1,13.7-0.8,14.1-1c0.4-0.3,47.5-23,49.6-27.4   c2.1-4.4,11.1-44.1,11.1-44.1L1563.1,618.2z"/>
	<path class="st17" d="M1565.7,580.3c0,0,4.7,19.1,0,42.5c-19.2,1-33.9-4.1-33.9-4.1l6.1-31.3"/>
</g>
<g>
	<g>
		<polygon class="st22" points="1429.8,743.7 1464,746.3 1466,747.1 1431.7,744.5   "/>
	</g>
	<g>
		<polygon class="st23" points="1432,743.1 1466.3,745.7 1466,747.1 1431.7,744.5   "/>
	</g>
	<g>
		<polygon class="st24" points="1432,743.1 1466.3,745.7 1478,750.5 1443.7,747.9   "/>
	</g>
	<g>
		<path class="st5" d="M1447.4,715.7c6.2,0.5,14.5,1.1,20.6,1.6c-3.7-0.2-7.1-0.5-12.4-0.5c-5.2,0-9.7,0.2-12.4,0.4    c-1.6,0.1-6.4,0.4-12.5,1.3c-5.4,0.7-8.7,1.4-12.4,2.2C1427.6,716.7,1437.4,715,1447.4,715.7z"/>
	</g>
	<path class="st4" d="M1466.2,720.2c-43.5-17.8-90.8,16.7-105.5,77c-14.8,60.3,8.6,123.6,52.1,141.4c43.5,17.8,90.8-16.7,105.5-77   C1533.1,801.4,1509.7,738,1466.2,720.2z"/>
	<g class="st13">
		<path class="st7" d="M1365.9,802c14.8-60.3,62-94.8,105.5-77c6.6,2.7,12.8,6.5,18.4,11.1c-7-6.9-14.9-12.3-23.6-15.9    c-43.5-17.8-90.8,16.7-105.5,77c-12.5,51.1,2.4,104.4,33.7,130.3C1366.7,900.3,1354.1,850.2,1365.9,802z"/>
	</g>
	<g>
		<path class="st23" d="M1447.4,715.7c11.4,0.9,22.8,1.7,34.3,2.6c6.3,0.5,12.6,2,18.9,4.5l-34.3-2.6    C1460,717.7,1453.6,716.2,1447.4,715.7z"/>
	</g>
	<g>
		<path class="st4" d="M1471.7,697.6c52.6,21.5,80.7,97.9,62.9,170.8c-17.8,72.8-74.9,114.4-127.4,92.9    c-52.6-21.5-80.7-97.9-62.9-170.8C1362.1,717.7,1419.2,676.1,1471.7,697.6z M1412.8,938.7c43.5,17.8,90.8-16.7,105.5-77    c14.8-60.3-8.6-123.6-52.1-141.5c-43.5-17.8-90.8,16.7-105.5,77C1345.9,857.5,1369.2,920.9,1412.8,938.7L1412.8,938.7z"/>
	</g>
	<g class="st13">
		<path class="st9" d="M1470.4,696.4c52.6,21.5,80.7,97.9,62.9,170.8c-17.8,72.8-74.9,114.4-127.4,92.9    c-52.6-21.5-80.7-97.9-62.9-170.8C1360.8,716.5,1417.8,674.9,1470.4,696.4z M1411.4,937.4c43.5,17.8,90.8-16.7,105.5-77    c14.8-60.3-8.6-123.6-52.1-141.5c-43.5-17.8-90.8,16.7-105.5,77C1344.5,856.3,1367.9,919.6,1411.4,937.4L1411.4,937.4z"/>
	</g>
	<g>
		<path class="st4" d="M1449,692.2c11.4,0.9,22.8,1.7,34.3,2.6c7.6,0.6,15.2,2.4,22.8,5.5l-34.3-2.6    C1464.2,694.5,1456.6,692.7,1449,692.2z"/>
	</g>
	<g>
		<path class="st4" d="M1464.3,969.4c-11.4-0.9-22.8-1.7-34.3-2.6c45.4,3.5,89.4-36,104.7-98.4c17.8-72.8-10.4-149.3-62.9-170.8    l34.3,2.6c52.6,21.5,80.7,97.9,62.9,170.8C1553.7,933.4,1509.6,972.8,1464.3,969.4z"/>
	</g>
	<path class="st25" d="M1553.1,912.7c6.9-12.3,12.4-26.3,16.2-41.7c8.3-34,6.6-68.8-2.9-98.5l-33.2,1c8.6,28.8,9.8,62.2,1.8,94.9   c-4.1,17-10.4,32.2-18.3,45.4L1553.1,912.7z"/>
	<g class="st6">
		<path class="st7" d="M1463.6,750.9l-4.5,18.2c5,3.3,8.5,8.4,10.4,15.2c1.9,6.8,1.9,14.7,0.2,23.5l-11.9-4.9c1-5,0.7-9.4-0.8-13.2    c-1.5-3.8-4-6.4-7.5-7.8c-3.8-1.5-7.1-1.2-10.2,1.1c-3,2.3-5.2,6.1-6.5,11.4c-0.5,2-0.7,3.8-0.7,5.6c0,1.8,0.3,3.5,0.7,5.1    c1,3.4,4,7,9,10.8c3,2.3,5.2,4.2,6.7,5.8c5.2,5.3,8.6,11.4,10.3,18.4c1.7,6.9,1.5,14.3-0.4,22.2c-2.4,10-6.4,17.7-11.8,23.2    c-5.4,5.4-11.3,7.5-17.5,6.2l-5.4,21.9l-11.1-4.5l5.2-21.1c-6.3-4-10.6-10-12.9-18.2c-2.3-8.1-2.2-17.3,0.2-27.4l11.5,4.7    c-1.4,6.9-1.3,12.6,0.4,17c1.7,4.5,4.9,7.6,9.6,9.6c4.3,1.8,8.2,1.4,11.7-1.2c3.5-2.6,6-7,7.5-13.1c0.5-2.2,0.9-4.2,1-6.2    c0.1-2,0.1-3.7-0.2-5.3c-0.9-5.2-4.1-10-9.6-14.5c-0.9-0.7-1.6-1.3-2-1.7c-6.9-5.8-11.5-12-13.8-18.6c-2.3-6.7-2.4-14.1-0.4-22.5    c2.2-9.1,5.8-16,10.7-20.6c4.9-4.7,10.5-6.5,16.8-5.6l4.4-18.1L1463.6,750.9z"/>
	</g>
	<g class="st26">
		<path class="st9" d="M1457.1,749.1l-4.5,18.2c5,3.3,8.5,8.4,10.4,15.2c1.9,6.8,1.9,14.7,0.2,23.5l-11.9-4.9c1-5,0.7-9.4-0.8-13.2    c-1.5-3.8-4-6.4-7.5-7.8c-3.7-1.5-7.1-1.2-10.2,1.1c-3,2.3-5.2,6.1-6.5,11.4c-0.5,2-0.7,3.8-0.7,5.6c0,1.8,0.2,3.5,0.7,5.1    c1,3.4,4,7,9,10.8c3,2.3,5.2,4.2,6.7,5.8c5.2,5.3,8.6,11.4,10.3,18.4c1.7,6.9,1.5,14.3-0.4,22.2c-2.4,10-6.4,17.7-11.8,23.2    c-5.4,5.4-11.3,7.5-17.5,6.2l-5.4,21.9l-11.1-4.5l5.2-21.1c-6.3-4-10.7-10-12.9-18.2c-2.3-8.1-2.2-17.3,0.2-27.4l11.5,4.7    c-1.4,6.9-1.3,12.6,0.3,17c1.7,4.5,4.9,7.6,9.6,9.6c4.3,1.8,8.2,1.4,11.7-1.2c3.5-2.6,6-7,7.4-13.1c0.5-2.2,0.9-4.2,1-6.2    c0.1-2,0.1-3.7-0.2-5.3c-0.9-5.2-4.1-10-9.6-14.5c-0.9-0.7-1.6-1.3-2-1.7c-6.9-5.8-11.5-12-13.8-18.6c-2.3-6.7-2.4-14.1-0.4-22.5    c2.2-9.1,5.8-16,10.7-20.6c4.9-4.7,10.5-6.5,16.8-5.6l4.4-18.1L1457.1,749.1z"/>
	</g>
</g>
<path class="st18" d="M1489.8,690.8l-2.4,2.4c-3.7,3.8-8.9,5.7-14.1,5c-3.7-0.5-7.5-1.2-9.1-1.8l-1.8-0.6c-2.2-0.7-3.1-3.4-1.8-5.3  c1.5-2.1,3.8-4.5,7.3-5.3C1474.9,683.7,1489.9,679.8,1489.8,690.8z"/>
</svg>