<svg xmlns="http://www.w3.org/2000/svg" xmlns:xlink="http://www.w3.org/1999/xlink" version="1.1" id="Layer_1" x="0px" y="0px" width="300px" height="300px" viewBox="0 0 300 300" enable-background="new 0 0 300 300" xml:space="preserve">
<g xmlns="http://www.w3.org/2000/svg">
	<g>
		<g>
			<g>
				<g>
					<path fill-rule="evenodd" clip-rule="evenodd" fill="#2A94F4" d="M113.397,162.015c-2.94,0.91-6.04,1.98-9.4,3.23       c-16.33,6.109-26.76,18.85-29.39,35.89c-0.63,4.07-1,10.6-1.32,19.59h-8.55c-7.93-1.46-16.09-2.19-23.73-4.57       c-7.43-2.31-14.44-6.09-21.41-9.67c-3.53-1.81-5.15-5.1-4.72-9.43c0.94-9.54,1-42.97,2.46-52.42       c1.86-12.05,8.86-20.57,20.45-24.91c4.05-1.51,8.15-2.91,12.32-4.04c5.57-1.51,10.43-1.77,16.31,1.59       c9.15,5.211,19.15,4.521,28.44-1.02c-0.11,1.43-0.17,2.87-0.17,4.33C94.687,137.065,101.927,151.875,113.397,162.015z"/>
				</g>
			</g>
			<path fill="#ffbe55" d="M120.207,61.956c0,4.77-0.81,9.34-2.29,13.6h-0.01c-7.86,5.62-14.19,13.24-18.25,22.12     c-6.1,3.561-13.2,5.59-20.76,5.59c-22.82,0-41.31-18.5-41.31-41.31c0-22.82,18.49-41.311,41.31-41.311     C101.707,20.645,120.207,39.135,120.207,61.956z"/>
		</g>
		<g>
			<g>
				<g>
					<path fill-rule="evenodd" clip-rule="evenodd" fill="#2A94F4" d="M279.977,206.895c-9.21,6.82-19.89,9.601-30.9,11.51       c-4.61,0.801-9.22,1.551-13.83,2.32h-7.24c0.02-5.42-0.04-9.25-0.29-11.69c-1.31-13.039-4.91-22.68-11.3-30.34       c-6.37-7.63-15.21-12.899-27.8-16.59c-0.53-0.16-1.07-0.31-1.6-0.46c11.23-10.12,18.3-24.779,18.3-41.06       c0-1.67-0.07-3.33-0.23-4.96c1.15,0.41,2.33,0.95,3.55,1.649c9.48,5.41,19.89,4.461,29.47-1.659       c1.53-0.98,3.77-1.54,5.55-1.311c4.09,0.53,8.16,1.44,12.13,2.601c19.15,5.619,27.11,15.1,29.11,34.909       c0.7,6.931-0.51,37.71,0.22,44.63C285.617,201.235,283.547,204.255,279.977,206.895z"/>
				</g>
			</g>
			<path fill="#ffbe55" d="M262.417,61.956c0,22.81-18.49,41.31-41.31,41.31c-7.57,0-14.66-2.029-20.76-5.58v-0.01     c-4.05-8.88-10.39-16.49-18.25-22.11c-1.49-4.26-2.3-8.84-2.3-13.609c0-22.82,18.49-41.311,41.31-41.311     S262.417,39.135,262.417,61.956z"/>
		</g>
	</g>
	<g>
		<g>
			<g>
				<g>
					<path fill-rule="evenodd" clip-rule="evenodd" fill="#2A94F4" d="M208.867,265.535c-9.21,6.811-19.89,9.591-30.9,11.5       c-4.6,0.801-9.22,1.551-13.83,2.32h-28.29c-7.93-1.45-16.09-2.189-23.73-4.56c-7.43-2.32-14.44-6.101-21.41-9.67       c-3.53-1.82-5.15-5.11-4.72-9.44c0.6-6.08,0.84-21.87,1.3-34.96c0.28-7.46,0.62-14.04,1.15-17.46       c1.86-12.04,8.86-20.57,20.46-24.91c4.04-1.51,8.15-2.91,12.31-4.03c2.4-0.649,4.66-1.069,6.93-1.069       c3.01,0,6.04,0.74,9.39,2.649c1.72,0.98,3.45,1.75,5.21,2.311c2.58,0.84,5.19,1.24,7.81,1.24c2.45,0,4.91-0.351,7.35-1.04       c3.08-0.87,6.14-2.271,9.11-4.17c1.29-0.83,3.1-1.36,4.7-1.36c0.29,0,0.57,0.02,0.84,0.05c4.09,0.53,8.17,1.45,12.13,2.61       c19.16,5.609,27.11,15.09,29.11,34.899c0.19,1.931,0.24,5.69,0.22,10.28c-0.04,11.91-0.52,29.35,0,34.35       C214.517,259.875,212.447,262.885,208.867,265.535z"/>
				</g>
			</g>
		</g>
		<g>
			<path fill="#ffbe55" d="M191.317,120.585c0,19.92-14.1,36.55-32.87,40.439c-2.73,0.57-5.55,0.87-8.45,0.87     c-2.41,0-4.78-0.21-7.08-0.6c-19.44-3.36-34.23-20.311-34.23-40.71c0-1.66,0.1-3.29,0.29-4.89     c2.42-20.521,19.87-36.421,41.02-36.421c21.28,0,38.8,16.08,41.07,36.761C191.237,117.525,191.317,119.045,191.317,120.585z"/>
		</g>
	</g>
</g>
</svg>